solid ST1A00669_01/Absorber_down:PartBody
  facet normal -1.000000e+00 -3.374460e-32 -1.836970e-16
    outer loop
      vertex -9.484789e+01 6.070000e+01 5.000000e+00
      vertex -9.484789e+01 -3.700000e+01 1.000000e+01
      vertex -9.484789e+01 6.070000e+01 1.000000e+01
    endloop
  endfacet
  facet normal -1.000000e+00 -3.374460e-32 -1.836970e-16
    outer loop
      vertex -9.484789e+01 -3.700000e+01 5.000000e+00
      vertex -9.484789e+01 -3.700000e+01 1.000000e+01
      vertex -9.484789e+01 6.070000e+01 5.000000e+00
    endloop
  endfacet
  facet normal -1.000000e+00 -3.374460e-32 -1.836970e-16
    outer loop
      vertex -9.484789e+01 -3.700000e+01 5.000000e+00
      vertex -9.484789e+01 -3.800000e+01 9.000000e+00
      vertex -9.484789e+01 -3.700000e+01 1.000000e+01
    endloop
  endfacet
  facet normal -1.000000e+00 -3.374460e-32 -1.836970e-16
    outer loop
      vertex -9.484789e+01 -3.800000e+01 6.000000e+00
      vertex -9.484789e+01 -3.800000e+01 9.000000e+00
      vertex -9.484789e+01 -3.700000e+01 5.000000e+00
    endloop
  endfacet
  facet normal 1.000000e+00 3.374460e-32 1.836970e-16
    outer loop
      vertex -3.784789e+01 6.070000e+01 5.000000e+00
      vertex -3.784789e+01 6.070000e+01 1.000000e+01
      vertex -3.784789e+01 -3.700000e+01 1.000000e+01
    endloop
  endfacet
  facet normal 1.000000e+00 3.374460e-32 1.836970e-16
    outer loop
      vertex -3.784789e+01 -3.700000e+01 1.000000e+01
      vertex -3.784789e+01 -3.700000e+01 5.000000e+00
      vertex -3.784789e+01 6.070000e+01 5.000000e+00
    endloop
  endfacet
  facet normal 1.000000e+00 3.374460e-32 1.836970e-16
    outer loop
      vertex -3.784789e+01 -3.700000e+01 1.000000e+01
      vertex -3.784789e+01 -3.800000e+01 6.000000e+00
      vertex -3.784789e+01 -3.700000e+01 5.000000e+00
    endloop
  endfacet
  facet normal 1.000000e+00 3.374460e-32 1.836970e-16
    outer loop
      vertex -3.784789e+01 -3.800000e+01 9.000000e+00
      vertex -3.784789e+01 -3.800000e+01 6.000000e+00
      vertex -3.784789e+01 -3.700000e+01 1.000000e+01
    endloop
  endfacet
  facet normal -1.298934e-16 -7.071068e-01 7.071068e-01
    outer loop
      vertex -9.484789e+01 -3.700000e+01 1.000000e+01
      vertex -9.484789e+01 -3.800000e+01 9.000000e+00
      vertex -3.784789e+01 -3.800000e+01 9.000000e+00
    endloop
  endfacet
  facet normal -1.298934e-16 -7.071068e-01 7.071068e-01
    outer loop
      vertex -9.484789e+01 -3.700000e+01 1.000000e+01
      vertex -3.784789e+01 -3.800000e+01 9.000000e+00
      vertex -3.784789e+01 -3.700000e+01 1.000000e+01
    endloop
  endfacet
  facet normal -0.000000e+00 -1.000000e+00 1.836970e-16
    outer loop
      vertex -3.784789e+01 -3.800000e+01 9.000000e+00
      vertex -9.484789e+01 -3.800000e+01 9.000000e+00
      vertex -9.484789e+01 -3.800000e+01 6.000000e+00
    endloop
  endfacet
  facet normal -0.000000e+00 -1.000000e+00 1.836970e-16
    outer loop
      vertex -3.784789e+01 -3.800000e+01 9.000000e+00
      vertex -9.484789e+01 -3.800000e+01 6.000000e+00
      vertex -3.784789e+01 -3.800000e+01 6.000000e+00
    endloop
  endfacet
  facet normal -1.836970e-16 1.836970e-16 1.000000e+00
    outer loop
      vertex -9.484789e+01 -3.700000e+01 1.000000e+01
      vertex -3.784789e+01 -3.700000e+01 1.000000e+01
      vertex -3.784789e+01 6.070000e+01 1.000000e+01
    endloop
  endfacet
  facet normal -1.836970e-16 1.836970e-16 1.000000e+00
    outer loop
      vertex -9.484789e+01 -3.700000e+01 1.000000e+01
      vertex -3.784789e+01 6.070000e+01 1.000000e+01
      vertex -9.484789e+01 6.070000e+01 1.000000e+01
    endloop
  endfacet
  facet normal 1.298934e-16 -7.071068e-01 -7.071068e-01
    outer loop
      vertex -9.484789e+01 -3.700000e+01 5.000000e+00
      vertex -3.784789e+01 -3.700000e+01 5.000000e+00
      vertex -3.784789e+01 -3.800000e+01 6.000000e+00
    endloop
  endfacet
  facet normal 1.298934e-16 -7.071068e-01 -7.071068e-01
    outer loop
      vertex -9.484789e+01 -3.700000e+01 5.000000e+00
      vertex -3.784789e+01 -3.800000e+01 6.000000e+00
      vertex -9.484789e+01 -3.800000e+01 6.000000e+00
    endloop
  endfacet
  facet normal 1.836970e-16 -1.836970e-16 -1.000000e+00
    outer loop
      vertex -9.484789e+01 -3.700000e+01 5.000000e+00
      vertex -9.484789e+01 6.070000e+01 5.000000e+00
      vertex -3.784789e+01 6.070000e+01 5.000000e+00
    endloop
  endfacet
  facet normal 1.836970e-16 -1.836970e-16 -1.000000e+00
    outer loop
      vertex -9.484789e+01 -3.700000e+01 5.000000e+00
      vertex -3.784789e+01 6.070000e+01 5.000000e+00
      vertex -3.784789e+01 -3.700000e+01 5.000000e+00
    endloop
  endfacet
  facet normal -0.000000e+00 1.000000e+00 -1.836970e-16
    outer loop
      vertex -9.484789e+01 6.070000e+01 5.000000e+00
      vertex -9.484789e+01 6.070000e+01 1.000000e+01
      vertex -3.784789e+01 6.070000e+01 1.000000e+01
    endloop
  endfacet
  facet normal -0.000000e+00 1.000000e+00 -1.836970e-16
    outer loop
      vertex -9.484789e+01 6.070000e+01 5.000000e+00
      vertex -3.784789e+01 6.070000e+01 1.000000e+01
      vertex -3.784789e+01 6.070000e+01 5.000000e+00
    endloop
  endfacet
endsolid ST1A00669_01/Absorber_down:PartBody
solid ST1A00669_01/Absorber_down:PartBody_1
  facet normal 1.000000e+00 3.374460e-32 1.836970e-16
    outer loop
      vertex -3.784789e+01 6.070000e+01 -5.000000e+00
      vertex -3.784789e+01 -3.700000e+01 -1.000000e+01
      vertex -3.784789e+01 6.070000e+01 -1.000000e+01
    endloop
  endfacet
  facet normal 1.000000e+00 3.374460e-32 1.836970e-16
    outer loop
      vertex -3.784789e+01 -3.700000e+01 -5.000000e+00
      vertex -3.784789e+01 -3.700000e+01 -1.000000e+01
      vertex -3.784789e+01 6.070000e+01 -5.000000e+00
    endloop
  endfacet
  facet normal 1.000000e+00 3.374460e-32 1.836970e-16
    outer loop
      vertex -3.784789e+01 -3.700000e+01 -5.000000e+00
      vertex -3.784789e+01 -3.800000e+01 -9.000000e+00
      vertex -3.784789e+01 -3.700000e+01 -1.000000e+01
    endloop
  endfacet
  facet normal 1.000000e+00 3.374460e-32 1.836970e-16
    outer loop
      vertex -3.784789e+01 -3.800000e+01 -6.000000e+00
      vertex -3.784789e+01 -3.800000e+01 -9.000000e+00
      vertex -3.784789e+01 -3.700000e+01 -5.000000e+00
    endloop
  endfacet
  facet normal -1.000000e+00 -3.374460e-32 -1.836970e-16
    outer loop
      vertex -9.484789e+01 6.070000e+01 -5.000000e+00
      vertex -9.484789e+01 6.070000e+01 -1.000000e+01
      vertex -9.484789e+01 -3.700000e+01 -1.000000e+01
    endloop
  endfacet
  facet normal -1.000000e+00 -3.374460e-32 -1.836970e-16
    outer loop
      vertex -9.484789e+01 -3.700000e+01 -1.000000e+01
      vertex -9.484789e+01 -3.700000e+01 -5.000000e+00
      vertex -9.484789e+01 6.070000e+01 -5.000000e+00
    endloop
  endfacet
  facet normal -1.000000e+00 -3.374460e-32 -1.836970e-16
    outer loop
      vertex -9.484789e+01 -3.700000e+01 -1.000000e+01
      vertex -9.484789e+01 -3.800000e+01 -6.000000e+00
      vertex -9.484789e+01 -3.700000e+01 -5.000000e+00
    endloop
  endfacet
  facet normal -1.000000e+00 -3.374460e-32 -1.836970e-16
    outer loop
      vertex -9.484789e+01 -3.800000e+01 -9.000000e+00
      vertex -9.484789e+01 -3.800000e+01 -6.000000e+00
      vertex -9.484789e+01 -3.700000e+01 -1.000000e+01
    endloop
  endfacet
  facet normal 1.298934e-16 -7.071068e-01 -7.071068e-01
    outer loop
      vertex -3.784789e+01 -3.700000e+01 -1.000000e+01
      vertex -3.784789e+01 -3.800000e+01 -9.000000e+00
      vertex -9.484789e+01 -3.800000e+01 -9.000000e+00
    endloop
  endfacet
  facet normal 1.298934e-16 -7.071068e-01 -7.071068e-01
    outer loop
      vertex -3.784789e+01 -3.700000e+01 -1.000000e+01
      vertex -9.484789e+01 -3.800000e+01 -9.000000e+00
      vertex -9.484789e+01 -3.700000e+01 -1.000000e+01
    endloop
  endfacet
  facet normal -0.000000e+00 -1.000000e+00 1.836970e-16
    outer loop
      vertex -9.484789e+01 -3.800000e+01 -9.000000e+00
      vertex -3.784789e+01 -3.800000e+01 -9.000000e+00
      vertex -3.784789e+01 -3.800000e+01 -6.000000e+00
    endloop
  endfacet
  facet normal -0.000000e+00 -1.000000e+00 1.836970e-16
    outer loop
      vertex -9.484789e+01 -3.800000e+01 -9.000000e+00
      vertex -3.784789e+01 -3.800000e+01 -6.000000e+00
      vertex -9.484789e+01 -3.800000e+01 -6.000000e+00
    endloop
  endfacet
  facet normal 1.836970e-16 -1.836970e-16 -1.000000e+00
    outer loop
      vertex -3.784789e+01 -3.700000e+01 -1.000000e+01
      vertex -9.484789e+01 -3.700000e+01 -1.000000e+01
      vertex -9.484789e+01 6.070000e+01 -1.000000e+01
    endloop
  endfacet
  facet normal 1.836970e-16 -1.836970e-16 -1.000000e+00
    outer loop
      vertex -3.784789e+01 -3.700000e+01 -1.000000e+01
      vertex -9.484789e+01 6.070000e+01 -1.000000e+01
      vertex -3.784789e+01 6.070000e+01 -1.000000e+01
    endloop
  endfacet
  facet normal -1.298934e-16 -7.071068e-01 7.071068e-01
    outer loop
      vertex -3.784789e+01 -3.700000e+01 -5.000000e+00
      vertex -9.484789e+01 -3.700000e+01 -5.000000e+00
      vertex -9.484789e+01 -3.800000e+01 -6.000000e+00
    endloop
  endfacet
  facet normal -1.298934e-16 -7.071068e-01 7.071068e-01
    outer loop
      vertex -3.784789e+01 -3.700000e+01 -5.000000e+00
      vertex -9.484789e+01 -3.800000e+01 -6.000000e+00
      vertex -3.784789e+01 -3.800000e+01 -6.000000e+00
    endloop
  endfacet
  facet normal -1.836970e-16 1.836970e-16 1.000000e+00
    outer loop
      vertex -3.784789e+01 -3.700000e+01 -5.000000e+00
      vertex -3.784789e+01 6.070000e+01 -5.000000e+00
      vertex -9.484789e+01 6.070000e+01 -5.000000e+00
    endloop
  endfacet
  facet normal -1.836970e-16 1.836970e-16 1.000000e+00
    outer loop
      vertex -3.784789e+01 -3.700000e+01 -5.000000e+00
      vertex -9.484789e+01 6.070000e+01 -5.000000e+00
      vertex -9.484789e+01 -3.700000e+01 -5.000000e+00
    endloop
  endfacet
  facet normal -0.000000e+00 1.000000e+00 -1.836970e-16
    outer loop
      vertex -3.784789e+01 6.070000e+01 -5.000000e+00
      vertex -3.784789e+01 6.070000e+01 -1.000000e+01
      vertex -9.484789e+01 6.070000e+01 -1.000000e+01
    endloop
  endfacet
  facet normal -0.000000e+00 1.000000e+00 -1.836970e-16
    outer loop
      vertex -3.784789e+01 6.070000e+01 -5.000000e+00
      vertex -9.484789e+01 6.070000e+01 -1.000000e+01
      vertex -9.484789e+01 6.070000e+01 -5.000000e+00
    endloop
  endfacet
endsolid ST1A00669_01/Absorber_down:PartBody_1
solid ST1A00669_01/Absorber_down:PartBody_2
  facet normal -1.000000e+00 -3.374460e-32 -1.836970e-16
    outer loop
      vertex 3.815211e+01 6.070000e+01 5.000000e+00
      vertex 3.815211e+01 -3.700000e+01 1.000000e+01
      vertex 3.815211e+01 6.070000e+01 1.000000e+01
    endloop
  endfacet
  facet normal -1.000000e+00 -3.374460e-32 -1.836970e-16
    outer loop
      vertex 3.815211e+01 -3.700000e+01 5.000000e+00
      vertex 3.815211e+01 -3.700000e+01 1.000000e+01
      vertex 3.815211e+01 6.070000e+01 5.000000e+00
    endloop
  endfacet
  facet normal -1.000000e+00 -3.374460e-32 -1.836970e-16
    outer loop
      vertex 3.815211e+01 -3.700000e+01 5.000000e+00
      vertex 3.815211e+01 -3.800000e+01 9.000000e+00
      vertex 3.815211e+01 -3.700000e+01 1.000000e+01
    endloop
  endfacet
  facet normal -1.000000e+00 -3.374460e-32 -1.836970e-16
    outer loop
      vertex 3.815211e+01 -3.800000e+01 6.000000e+00
      vertex 3.815211e+01 -3.800000e+01 9.000000e+00
      vertex 3.815211e+01 -3.700000e+01 5.000000e+00
    endloop
  endfacet
  facet normal 1.000000e+00 3.374460e-32 1.836970e-16
    outer loop
      vertex 9.515211e+01 6.070000e+01 5.000000e+00
      vertex 9.515211e+01 6.070000e+01 1.000000e+01
      vertex 9.515211e+01 -3.700000e+01 1.000000e+01
    endloop
  endfacet
  facet normal 1.000000e+00 3.374460e-32 1.836970e-16
    outer loop
      vertex 9.515211e+01 -3.700000e+01 1.000000e+01
      vertex 9.515211e+01 -3.700000e+01 5.000000e+00
      vertex 9.515211e+01 6.070000e+01 5.000000e+00
    endloop
  endfacet
  facet normal 1.000000e+00 3.374460e-32 1.836970e-16
    outer loop
      vertex 9.515211e+01 -3.700000e+01 1.000000e+01
      vertex 9.515211e+01 -3.800000e+01 6.000000e+00
      vertex 9.515211e+01 -3.700000e+01 5.000000e+00
    endloop
  endfacet
  facet normal 1.000000e+00 3.374460e-32 1.836970e-16
    outer loop
      vertex 9.515211e+01 -3.800000e+01 9.000000e+00
      vertex 9.515211e+01 -3.800000e+01 6.000000e+00
      vertex 9.515211e+01 -3.700000e+01 1.000000e+01
    endloop
  endfacet
  facet normal -1.298934e-16 -7.071068e-01 7.071068e-01
    outer loop
      vertex 3.815211e+01 -3.700000e+01 1.000000e+01
      vertex 3.815211e+01 -3.800000e+01 9.000000e+00
      vertex 9.515211e+01 -3.800000e+01 9.000000e+00
    endloop
  endfacet
  facet normal -1.298934e-16 -7.071068e-01 7.071068e-01
    outer loop
      vertex 3.815211e+01 -3.700000e+01 1.000000e+01
      vertex 9.515211e+01 -3.800000e+01 9.000000e+00
      vertex 9.515211e+01 -3.700000e+01 1.000000e+01
    endloop
  endfacet
  facet normal -0.000000e+00 -1.000000e+00 1.836970e-16
    outer loop
      vertex 9.515211e+01 -3.800000e+01 9.000000e+00
      vertex 3.815211e+01 -3.800000e+01 9.000000e+00
      vertex 3.815211e+01 -3.800000e+01 6.000000e+00
    endloop
  endfacet
  facet normal -0.000000e+00 -1.000000e+00 1.836970e-16
    outer loop
      vertex 9.515211e+01 -3.800000e+01 9.000000e+00
      vertex 3.815211e+01 -3.800000e+01 6.000000e+00
      vertex 9.515211e+01 -3.800000e+01 6.000000e+00
    endloop
  endfacet
  facet normal -1.836970e-16 1.836970e-16 1.000000e+00
    outer loop
      vertex 3.815211e+01 -3.700000e+01 1.000000e+01
      vertex 9.515211e+01 -3.700000e+01 1.000000e+01
      vertex 9.515211e+01 6.070000e+01 1.000000e+01
    endloop
  endfacet
  facet normal -1.836970e-16 1.836970e-16 1.000000e+00
    outer loop
      vertex 3.815211e+01 -3.700000e+01 1.000000e+01
      vertex 9.515211e+01 6.070000e+01 1.000000e+01
      vertex 3.815211e+01 6.070000e+01 1.000000e+01
    endloop
  endfacet
  facet normal 1.298934e-16 -7.071068e-01 -7.071068e-01
    outer loop
      vertex 3.815211e+01 -3.700000e+01 5.000000e+00
      vertex 9.515211e+01 -3.700000e+01 5.000000e+00
      vertex 9.515211e+01 -3.800000e+01 6.000000e+00
    endloop
  endfacet
  facet normal 1.298934e-16 -7.071068e-01 -7.071068e-01
    outer loop
      vertex 3.815211e+01 -3.700000e+01 5.000000e+00
      vertex 9.515211e+01 -3.800000e+01 6.000000e+00
      vertex 3.815211e+01 -3.800000e+01 6.000000e+00
    endloop
  endfacet
  facet normal 1.836970e-16 -1.836970e-16 -1.000000e+00
    outer loop
      vertex 3.815211e+01 -3.700000e+01 5.000000e+00
      vertex 3.815211e+01 6.070000e+01 5.000000e+00
      vertex 9.515211e+01 6.070000e+01 5.000000e+00
    endloop
  endfacet
  facet normal 1.836970e-16 -1.836970e-16 -1.000000e+00
    outer loop
      vertex 3.815211e+01 -3.700000e+01 5.000000e+00
      vertex 9.515211e+01 6.070000e+01 5.000000e+00
      vertex 9.515211e+01 -3.700000e+01 5.000000e+00
    endloop
  endfacet
  facet normal -0.000000e+00 1.000000e+00 -1.836970e-16
    outer loop
      vertex 3.815211e+01 6.070000e+01 5.000000e+00
      vertex 3.815211e+01 6.070000e+01 1.000000e+01
      vertex 9.515211e+01 6.070000e+01 1.000000e+01
    endloop
  endfacet
  facet normal -0.000000e+00 1.000000e+00 -1.836970e-16
    outer loop
      vertex 3.815211e+01 6.070000e+01 5.000000e+00
      vertex 9.515211e+01 6.070000e+01 1.000000e+01
      vertex 9.515211e+01 6.070000e+01 5.000000e+00
    endloop
  endfacet
endsolid ST1A00669_01/Absorber_down:PartBody_2
solid ST1A00669_01/Absorber_down:PartBody_3
  facet normal -1.000000e+00 -3.374460e-32 -1.836970e-16
    outer loop
      vertex 3.815211e+01 6.070000e+01 -1.000000e+01
      vertex 3.815211e+01 -3.700000e+01 -5.000000e+00
      vertex 3.815211e+01 6.070000e+01 -5.000000e+00
    endloop
  endfacet
  facet normal -1.000000e+00 -3.374460e-32 -1.836970e-16
    outer loop
      vertex 3.815211e+01 -3.700000e+01 -1.000000e+01
      vertex 3.815211e+01 -3.700000e+01 -5.000000e+00
      vertex 3.815211e+01 6.070000e+01 -1.000000e+01
    endloop
  endfacet
  facet normal -1.000000e+00 -3.374460e-32 -1.836970e-16
    outer loop
      vertex 3.815211e+01 -3.700000e+01 -1.000000e+01
      vertex 3.815211e+01 -3.800000e+01 -6.000000e+00
      vertex 3.815211e+01 -3.700000e+01 -5.000000e+00
    endloop
  endfacet
  facet normal -1.000000e+00 -3.374460e-32 -1.836970e-16
    outer loop
      vertex 3.815211e+01 -3.800000e+01 -9.000000e+00
      vertex 3.815211e+01 -3.800000e+01 -6.000000e+00
      vertex 3.815211e+01 -3.700000e+01 -1.000000e+01
    endloop
  endfacet
  facet normal 1.000000e+00 3.374460e-32 1.836970e-16
    outer loop
      vertex 9.515211e+01 6.070000e+01 -1.000000e+01
      vertex 9.515211e+01 6.070000e+01 -5.000000e+00
      vertex 9.515211e+01 -3.700000e+01 -5.000000e+00
    endloop
  endfacet
  facet normal 1.000000e+00 3.374460e-32 1.836970e-16
    outer loop
      vertex 9.515211e+01 -3.700000e+01 -5.000000e+00
      vertex 9.515211e+01 -3.700000e+01 -1.000000e+01
      vertex 9.515211e+01 6.070000e+01 -1.000000e+01
    endloop
  endfacet
  facet normal 1.000000e+00 3.374460e-32 1.836970e-16
    outer loop
      vertex 9.515211e+01 -3.700000e+01 -5.000000e+00
      vertex 9.515211e+01 -3.800000e+01 -9.000000e+00
      vertex 9.515211e+01 -3.700000e+01 -1.000000e+01
    endloop
  endfacet
  facet normal 1.000000e+00 3.374460e-32 1.836970e-16
    outer loop
      vertex 9.515211e+01 -3.800000e+01 -6.000000e+00
      vertex 9.515211e+01 -3.800000e+01 -9.000000e+00
      vertex 9.515211e+01 -3.700000e+01 -5.000000e+00
    endloop
  endfacet
  facet normal -1.298934e-16 -7.071068e-01 7.071068e-01
    outer loop
      vertex 3.815211e+01 -3.700000e+01 -5.000000e+00
      vertex 3.815211e+01 -3.800000e+01 -6.000000e+00
      vertex 9.515211e+01 -3.800000e+01 -6.000000e+00
    endloop
  endfacet
  facet normal -1.298934e-16 -7.071068e-01 7.071068e-01
    outer loop
      vertex 3.815211e+01 -3.700000e+01 -5.000000e+00
      vertex 9.515211e+01 -3.800000e+01 -6.000000e+00
      vertex 9.515211e+01 -3.700000e+01 -5.000000e+00
    endloop
  endfacet
  facet normal -0.000000e+00 -1.000000e+00 1.836970e-16
    outer loop
      vertex 9.515211e+01 -3.800000e+01 -6.000000e+00
      vertex 3.815211e+01 -3.800000e+01 -6.000000e+00
      vertex 3.815211e+01 -3.800000e+01 -9.000000e+00
    endloop
  endfacet
  facet normal -0.000000e+00 -1.000000e+00 1.836970e-16
    outer loop
      vertex 9.515211e+01 -3.800000e+01 -6.000000e+00
      vertex 3.815211e+01 -3.800000e+01 -9.000000e+00
      vertex 9.515211e+01 -3.800000e+01 -9.000000e+00
    endloop
  endfacet
  facet normal -1.836970e-16 1.836970e-16 1.000000e+00
    outer loop
      vertex 3.815211e+01 -3.700000e+01 -5.000000e+00
      vertex 9.515211e+01 -3.700000e+01 -5.000000e+00
      vertex 9.515211e+01 6.070000e+01 -5.000000e+00
    endloop
  endfacet
  facet normal -1.836970e-16 1.836970e-16 1.000000e+00
    outer loop
      vertex 3.815211e+01 -3.700000e+01 -5.000000e+00
      vertex 9.515211e+01 6.070000e+01 -5.000000e+00
      vertex 3.815211e+01 6.070000e+01 -5.000000e+00
    endloop
  endfacet
  facet normal 1.298934e-16 -7.071068e-01 -7.071068e-01
    outer loop
      vertex 3.815211e+01 -3.700000e+01 -1.000000e+01
      vertex 9.515211e+01 -3.700000e+01 -1.000000e+01
      vertex 9.515211e+01 -3.800000e+01 -9.000000e+00
    endloop
  endfacet
  facet normal 1.298934e-16 -7.071068e-01 -7.071068e-01
    outer loop
      vertex 3.815211e+01 -3.700000e+01 -1.000000e+01
      vertex 9.515211e+01 -3.800000e+01 -9.000000e+00
      vertex 3.815211e+01 -3.800000e+01 -9.000000e+00
    endloop
  endfacet
  facet normal 1.836970e-16 -1.836970e-16 -1.000000e+00
    outer loop
      vertex 3.815211e+01 -3.700000e+01 -1.000000e+01
      vertex 3.815211e+01 6.070000e+01 -1.000000e+01
      vertex 9.515211e+01 6.070000e+01 -1.000000e+01
    endloop
  endfacet
  facet normal 1.836970e-16 -1.836970e-16 -1.000000e+00
    outer loop
      vertex 3.815211e+01 -3.700000e+01 -1.000000e+01
      vertex 9.515211e+01 6.070000e+01 -1.000000e+01
      vertex 9.515211e+01 -3.700000e+01 -1.000000e+01
    endloop
  endfacet
  facet normal -0.000000e+00 1.000000e+00 -1.836970e-16
    outer loop
      vertex 3.815211e+01 6.070000e+01 -1.000000e+01
      vertex 3.815211e+01 6.070000e+01 -5.000000e+00
      vertex 9.515211e+01 6.070000e+01 -5.000000e+00
    endloop
  endfacet
  facet normal -0.000000e+00 1.000000e+00 -1.836970e-16
    outer loop
      vertex 3.815211e+01 6.070000e+01 -1.000000e+01
      vertex 9.515211e+01 6.070000e+01 -5.000000e+00
      vertex 9.515211e+01 6.070000e+01 -1.000000e+01
    endloop
  endfacet
endsolid ST1A00669_01/Absorber_down:PartBody_3
solid ST1A00669_01/Absorber_up:PartBody
  facet normal 5.485904e-16 2.386517e-13 -1.000000e+00
    outer loop
      vertex 9.150000e+01 6.660000e+01 5.500000e+00
      vertex 9.500000e+01 6.120000e+01 5.500000e+00
      vertex 3.400000e+01 6.120000e+01 5.500000e+00
    endloop
  endfacet
  facet normal 5.485904e-16 2.386517e-13 -1.000000e+00
    outer loop
      vertex 9.500000e+01 6.660000e+01 5.500000e+00
      vertex 9.500000e+01 6.120000e+01 5.500000e+00
      vertex 9.150000e+01 6.660000e+01 5.500000e+00
    endloop
  endfacet
  facet normal 5.485904e-16 2.386517e-13 -1.000000e+00
    outer loop
      vertex 3.400000e+01 6.460000e+01 5.500000e+00
      vertex 9.150000e+01 6.660000e+01 5.500000e+00
      vertex 3.400000e+01 6.120000e+01 5.500000e+00
    endloop
  endfacet
  facet normal 5.485904e-16 2.386517e-13 -1.000000e+00
    outer loop
      vertex -3.400000e+01 6.460000e+01 5.500000e+00
      vertex 9.150000e+01 6.660000e+01 5.500000e+00
      vertex 3.400000e+01 6.460000e+01 5.500000e+00
    endloop
  endfacet
  facet normal 5.485904e-16 2.386517e-13 -1.000000e+00
    outer loop
      vertex -3.400000e+01 6.460000e+01 5.500000e+00
      vertex -9.150000e+01 6.660000e+01 5.500000e+00
      vertex 9.150000e+01 6.660000e+01 5.500000e+00
    endloop
  endfacet
  facet normal 5.485904e-16 2.386517e-13 -1.000000e+00
    outer loop
      vertex -3.400000e+01 6.120000e+01 5.500000e+00
      vertex -9.150000e+01 6.660000e+01 5.500000e+00
      vertex -3.400000e+01 6.460000e+01 5.500000e+00
    endloop
  endfacet
  facet normal 5.485904e-16 2.386517e-13 -1.000000e+00
    outer loop
      vertex -9.500000e+01 6.120000e+01 5.500000e+00
      vertex -9.150000e+01 6.660000e+01 5.500000e+00
      vertex -3.400000e+01 6.120000e+01 5.500000e+00
    endloop
  endfacet
  facet normal 5.485904e-16 2.386517e-13 -1.000000e+00
    outer loop
      vertex -9.500000e+01 6.660000e+01 5.500000e+00
      vertex -9.150000e+01 6.660000e+01 5.500000e+00
      vertex -9.500000e+01 6.120000e+01 5.500000e+00
    endloop
  endfacet
  facet normal -5.485904e-16 -2.386517e-13 1.000000e+00
    outer loop
      vertex -9.150000e+01 6.660000e+01 4.150000e+01
      vertex -9.500000e+01 6.660000e+01 4.150000e+01
      vertex -9.500000e+01 6.120000e+01 4.150000e+01
    endloop
  endfacet
  facet normal -5.485904e-16 -2.386517e-13 1.000000e+00
    outer loop
      vertex 9.150000e+01 6.660000e+01 4.150000e+01
      vertex 9.500000e+01 6.120000e+01 4.150000e+01
      vertex 9.500000e+01 6.660000e+01 4.150000e+01
    endloop
  endfacet
  facet normal -5.485904e-16 -2.386517e-13 1.000000e+00
    outer loop
      vertex 9.150000e+01 6.660000e+01 4.150000e+01
      vertex 3.400000e+01 6.120000e+01 4.150000e+01
      vertex 9.500000e+01 6.120000e+01 4.150000e+01
    endloop
  endfacet
  facet normal -5.485904e-16 -2.386517e-13 1.000000e+00
    outer loop
      vertex 3.400000e+01 6.460000e+01 4.150000e+01
      vertex 3.400000e+01 6.120000e+01 4.150000e+01
      vertex 9.150000e+01 6.660000e+01 4.150000e+01
    endloop
  endfacet
  facet normal -5.485904e-16 -2.386517e-13 1.000000e+00
    outer loop
      vertex 9.150000e+01 6.960000e+01 4.150000e+01
      vertex 3.400000e+01 6.460000e+01 4.150000e+01
      vertex 9.150000e+01 6.660000e+01 4.150000e+01
    endloop
  endfacet
  facet normal -5.485904e-16 -2.386517e-13 1.000000e+00
    outer loop
      vertex -9.150000e+01 6.960000e+01 4.150000e+01
      vertex 3.400000e+01 6.460000e+01 4.150000e+01
      vertex 9.150000e+01 6.960000e+01 4.150000e+01
    endloop
  endfacet
  facet normal -5.485904e-16 -2.386517e-13 1.000000e+00
    outer loop
      vertex -9.150000e+01 6.960000e+01 4.150000e+01
      vertex -3.400000e+01 6.460000e+01 4.150000e+01
      vertex 3.400000e+01 6.460000e+01 4.150000e+01
    endloop
  endfacet
  facet normal -5.485904e-16 -2.386517e-13 1.000000e+00
    outer loop
      vertex -9.150000e+01 6.660000e+01 4.150000e+01
      vertex -3.400000e+01 6.460000e+01 4.150000e+01
      vertex -9.150000e+01 6.960000e+01 4.150000e+01
    endloop
  endfacet
  facet normal -5.485904e-16 -2.386517e-13 1.000000e+00
    outer loop
      vertex -9.150000e+01 6.660000e+01 4.150000e+01
      vertex -3.400000e+01 6.120000e+01 4.150000e+01
      vertex -3.400000e+01 6.460000e+01 4.150000e+01
    endloop
  endfacet
  facet normal -5.485904e-16 -2.386517e-13 1.000000e+00
    outer loop
      vertex -9.500000e+01 6.120000e+01 4.150000e+01
      vertex -3.400000e+01 6.120000e+01 4.150000e+01
      vertex -9.150000e+01 6.660000e+01 4.150000e+01
    endloop
  endfacet
  facet normal 1.000000e+00 4.416937e-14 5.485904e-16
    outer loop
      vertex 9.150000e+01 6.660000e+01 5.500000e+00
      vertex 9.150000e+01 6.960000e+01 4.150000e+01
      vertex 9.150000e+01 6.660000e+01 4.150000e+01
    endloop
  endfacet
  facet normal 1.000000e+00 4.416937e-14 5.485904e-16
    outer loop
      vertex 9.150000e+01 6.660000e+01 5.500000e+00
      vertex 9.150000e+01 6.960000e+01 3.000000e+00
      vertex 9.150000e+01 6.960000e+01 4.150000e+01
    endloop
  endfacet
  facet normal 1.000000e+00 4.416937e-14 5.485904e-16
    outer loop
      vertex 9.150000e+01 6.660000e+01 3.000000e+00
      vertex 9.150000e+01 6.960000e+01 3.000000e+00
      vertex 9.150000e+01 6.660000e+01 5.500000e+00
    endloop
  endfacet
  facet normal -1.000000e+00 -4.416937e-14 -5.485904e-16
    outer loop
      vertex -9.150000e+01 6.660000e+01 5.500000e+00
      vertex -9.150000e+01 6.960000e+01 3.000000e+00
      vertex -9.150000e+01 6.660000e+01 3.000000e+00
    endloop
  endfacet
  facet normal -1.000000e+00 -4.416937e-14 -5.485904e-16
    outer loop
      vertex -9.150000e+01 6.660000e+01 5.500000e+00
      vertex -9.150000e+01 6.960000e+01 4.150000e+01
      vertex -9.150000e+01 6.960000e+01 3.000000e+00
    endloop
  endfacet
  facet normal -1.000000e+00 -4.416937e-14 -5.485904e-16
    outer loop
      vertex -9.150000e+01 6.660000e+01 4.150000e+01
      vertex -9.150000e+01 6.960000e+01 4.150000e+01
      vertex -9.150000e+01 6.660000e+01 5.500000e+00
    endloop
  endfacet
  facet normal 1.000000e+00 4.416937e-14 5.485904e-16
    outer loop
      vertex 9.500000e+01 6.120000e+01 4.150000e+01
      vertex 9.500000e+01 6.120000e+01 5.500000e+00
      vertex 9.500000e+01 6.660000e+01 5.500000e+00
    endloop
  endfacet
  facet normal 1.000000e+00 4.416937e-14 5.485904e-16
    outer loop
      vertex 9.500000e+01 6.120000e+01 4.150000e+01
      vertex 9.500000e+01 6.660000e+01 5.500000e+00
      vertex 9.500000e+01 6.660000e+01 4.150000e+01
    endloop
  endfacet
  facet normal -1.000000e+00 -4.416937e-14 -5.485904e-16
    outer loop
      vertex -9.500000e+01 6.120000e+01 4.150000e+01
      vertex -9.500000e+01 6.660000e+01 4.150000e+01
      vertex -9.500000e+01 6.660000e+01 5.500000e+00
    endloop
  endfacet
  facet normal -1.000000e+00 -4.416937e-14 -5.485904e-16
    outer loop
      vertex -9.500000e+01 6.120000e+01 4.150000e+01
      vertex -9.500000e+01 6.660000e+01 5.500000e+00
      vertex -9.500000e+01 6.120000e+01 5.500000e+00
    endloop
  endfacet
  facet normal -4.416937e-14 1.000000e+00 2.386517e-13
    outer loop
      vertex 9.150000e+01 6.660000e+01 5.500000e+00
      vertex 9.150000e+01 6.660000e+01 4.150000e+01
      vertex 9.500000e+01 6.660000e+01 4.150000e+01
    endloop
  endfacet
  facet normal -4.416937e-14 1.000000e+00 2.386517e-13
    outer loop
      vertex 9.150000e+01 6.660000e+01 5.500000e+00
      vertex 9.500000e+01 6.660000e+01 4.150000e+01
      vertex 9.500000e+01 6.660000e+01 5.500000e+00
    endloop
  endfacet
  facet normal 4.416937e-14 -1.000000e+00 -2.386517e-13
    outer loop
      vertex 3.400000e+01 6.460000e+01 5.500000e+00
      vertex 3.400000e+01 6.460000e+01 4.150000e+01
      vertex -3.400000e+01 6.460000e+01 4.150000e+01
    endloop
  endfacet
  facet normal 4.416937e-14 -1.000000e+00 -2.386517e-13
    outer loop
      vertex 3.400000e+01 6.460000e+01 5.500000e+00
      vertex -3.400000e+01 6.460000e+01 4.150000e+01
      vertex -3.400000e+01 6.460000e+01 5.500000e+00
    endloop
  endfacet
  facet normal -4.416937e-14 1.000000e+00 2.386517e-13
    outer loop
      vertex -9.500000e+01 6.660000e+01 5.500000e+00
      vertex -9.500000e+01 6.660000e+01 4.150000e+01
      vertex -9.150000e+01 6.660000e+01 4.150000e+01
    endloop
  endfacet
  facet normal -4.416937e-14 1.000000e+00 2.386517e-13
    outer loop
      vertex -9.500000e+01 6.660000e+01 5.500000e+00
      vertex -9.150000e+01 6.660000e+01 4.150000e+01
      vertex -9.150000e+01 6.660000e+01 5.500000e+00
    endloop
  endfacet
  facet normal -4.416937e-14 1.000000e+00 2.386517e-13
    outer loop
      vertex 9.150000e+01 6.960000e+01 3.000000e+00
      vertex -9.150000e+01 6.960000e+01 3.000000e+00
      vertex -9.150000e+01 6.960000e+01 4.150000e+01
    endloop
  endfacet
  facet normal -4.416937e-14 1.000000e+00 2.386517e-13
    outer loop
      vertex 9.150000e+01 6.960000e+01 3.000000e+00
      vertex -9.150000e+01 6.960000e+01 4.150000e+01
      vertex 9.150000e+01 6.960000e+01 4.150000e+01
    endloop
  endfacet
  facet normal 5.485904e-16 2.386517e-13 -1.000000e+00
    outer loop
      vertex 9.150000e+01 6.660000e+01 3.000000e+00
      vertex -9.150000e+01 6.660000e+01 3.000000e+00
      vertex -9.150000e+01 6.960000e+01 3.000000e+00
    endloop
  endfacet
  facet normal 5.485904e-16 2.386517e-13 -1.000000e+00
    outer loop
      vertex 9.150000e+01 6.660000e+01 3.000000e+00
      vertex -9.150000e+01 6.960000e+01 3.000000e+00
      vertex 9.150000e+01 6.960000e+01 3.000000e+00
    endloop
  endfacet
  facet normal 4.416937e-14 -1.000000e+00 -2.386517e-13
    outer loop
      vertex 9.150000e+01 6.660000e+01 3.000000e+00
      vertex 9.150000e+01 6.660000e+01 5.500000e+00
      vertex -9.150000e+01 6.660000e+01 5.500000e+00
    endloop
  endfacet
  facet normal 4.416937e-14 -1.000000e+00 -2.386517e-13
    outer loop
      vertex 9.150000e+01 6.660000e+01 3.000000e+00
      vertex -9.150000e+01 6.660000e+01 5.500000e+00
      vertex -9.150000e+01 6.660000e+01 3.000000e+00
    endloop
  endfacet
  facet normal 1.000000e+00 4.416937e-14 5.485904e-16
    outer loop
      vertex -3.400000e+01 6.120000e+01 5.500000e+00
      vertex -3.400000e+01 6.460000e+01 5.500000e+00
      vertex -3.400000e+01 6.460000e+01 4.150000e+01
    endloop
  endfacet
  facet normal 1.000000e+00 4.416937e-14 5.485904e-16
    outer loop
      vertex -3.400000e+01 6.120000e+01 5.500000e+00
      vertex -3.400000e+01 6.460000e+01 4.150000e+01
      vertex -3.400000e+01 6.120000e+01 4.150000e+01
    endloop
  endfacet
  facet normal 4.416937e-14 -1.000000e+00 -2.386517e-13
    outer loop
      vertex -9.500000e+01 6.120000e+01 5.500000e+00
      vertex -3.400000e+01 6.120000e+01 5.500000e+00
      vertex -3.400000e+01 6.120000e+01 4.150000e+01
    endloop
  endfacet
  facet normal 4.416937e-14 -1.000000e+00 -2.386517e-13
    outer loop
      vertex -9.500000e+01 6.120000e+01 5.500000e+00
      vertex -3.400000e+01 6.120000e+01 4.150000e+01
      vertex -9.500000e+01 6.120000e+01 4.150000e+01
    endloop
  endfacet
  facet normal -1.000000e+00 -4.416937e-14 -5.485904e-16
    outer loop
      vertex 3.400000e+01 6.120000e+01 5.500000e+00
      vertex 3.400000e+01 6.120000e+01 4.150000e+01
      vertex 3.400000e+01 6.460000e+01 4.150000e+01
    endloop
  endfacet
  facet normal -1.000000e+00 -4.416937e-14 -5.485904e-16
    outer loop
      vertex 3.400000e+01 6.120000e+01 5.500000e+00
      vertex 3.400000e+01 6.460000e+01 4.150000e+01
      vertex 3.400000e+01 6.460000e+01 5.500000e+00
    endloop
  endfacet
  facet normal 4.416937e-14 -1.000000e+00 -2.386517e-13
    outer loop
      vertex 3.400000e+01 6.120000e+01 5.500000e+00
      vertex 9.500000e+01 6.120000e+01 5.500000e+00
      vertex 9.500000e+01 6.120000e+01 4.150000e+01
    endloop
  endfacet
  facet normal 4.416937e-14 -1.000000e+00 -2.386517e-13
    outer loop
      vertex 3.400000e+01 6.120000e+01 5.500000e+00
      vertex 9.500000e+01 6.120000e+01 4.150000e+01
      vertex 3.400000e+01 6.120000e+01 4.150000e+01
    endloop
  endfacet
endsolid ST1A00669_01/Absorber_up:PartBody
solid ST1A00669_01/Absorber_up:PartBody_1
  facet normal -7.983511e-16 -2.386517e-13 1.000000e+00
    outer loop
      vertex -9.150000e+01 6.660000e+01 -5.500000e+00
      vertex -9.500000e+01 6.120000e+01 -5.500000e+00
      vertex -3.400000e+01 6.120000e+01 -5.500000e+00
    endloop
  endfacet
  facet normal -7.983511e-16 -2.386517e-13 1.000000e+00
    outer loop
      vertex -9.500000e+01 6.660000e+01 -5.500000e+00
      vertex -9.500000e+01 6.120000e+01 -5.500000e+00
      vertex -9.150000e+01 6.660000e+01 -5.500000e+00
    endloop
  endfacet
  facet normal -7.983511e-16 -2.386517e-13 1.000000e+00
    outer loop
      vertex -3.400000e+01 6.460000e+01 -5.500000e+00
      vertex -9.150000e+01 6.660000e+01 -5.500000e+00
      vertex -3.400000e+01 6.120000e+01 -5.500000e+00
    endloop
  endfacet
  facet normal -7.983511e-16 -2.386517e-13 1.000000e+00
    outer loop
      vertex 3.400000e+01 6.460000e+01 -5.500000e+00
      vertex -9.150000e+01 6.660000e+01 -5.500000e+00
      vertex -3.400000e+01 6.460000e+01 -5.500000e+00
    endloop
  endfacet
  facet normal -7.983511e-16 -2.386517e-13 1.000000e+00
    outer loop
      vertex 3.400000e+01 6.460000e+01 -5.500000e+00
      vertex 9.150000e+01 6.660000e+01 -5.500000e+00
      vertex -9.150000e+01 6.660000e+01 -5.500000e+00
    endloop
  endfacet
  facet normal -7.983511e-16 -2.386517e-13 1.000000e+00
    outer loop
      vertex 3.400000e+01 6.120000e+01 -5.500000e+00
      vertex 9.150000e+01 6.660000e+01 -5.500000e+00
      vertex 3.400000e+01 6.460000e+01 -5.500000e+00
    endloop
  endfacet
  facet normal -7.983511e-16 -2.386517e-13 1.000000e+00
    outer loop
      vertex 9.500000e+01 6.120000e+01 -5.500000e+00
      vertex 9.150000e+01 6.660000e+01 -5.500000e+00
      vertex 3.400000e+01 6.120000e+01 -5.500000e+00
    endloop
  endfacet
  facet normal -7.983511e-16 -2.386517e-13 1.000000e+00
    outer loop
      vertex 9.500000e+01 6.660000e+01 -5.500000e+00
      vertex 9.150000e+01 6.660000e+01 -5.500000e+00
      vertex 9.500000e+01 6.120000e+01 -5.500000e+00
    endloop
  endfacet
  facet normal 7.983511e-16 2.386517e-13 -1.000000e+00
    outer loop
      vertex 9.150000e+01 6.660000e+01 -4.150000e+01
      vertex 9.500000e+01 6.660000e+01 -4.150000e+01
      vertex 9.500000e+01 6.120000e+01 -4.150000e+01
    endloop
  endfacet
  facet normal 7.983511e-16 2.386517e-13 -1.000000e+00
    outer loop
      vertex -9.150000e+01 6.660000e+01 -4.150000e+01
      vertex -9.500000e+01 6.120000e+01 -4.150000e+01
      vertex -9.500000e+01 6.660000e+01 -4.150000e+01
    endloop
  endfacet
  facet normal 7.983511e-16 2.386517e-13 -1.000000e+00
    outer loop
      vertex -9.150000e+01 6.660000e+01 -4.150000e+01
      vertex -3.400000e+01 6.120000e+01 -4.150000e+01
      vertex -9.500000e+01 6.120000e+01 -4.150000e+01
    endloop
  endfacet
  facet normal 7.983511e-16 2.386517e-13 -1.000000e+00
    outer loop
      vertex -3.400000e+01 6.460000e+01 -4.150000e+01
      vertex -3.400000e+01 6.120000e+01 -4.150000e+01
      vertex -9.150000e+01 6.660000e+01 -4.150000e+01
    endloop
  endfacet
  facet normal 7.983511e-16 2.386517e-13 -1.000000e+00
    outer loop
      vertex -9.150000e+01 6.960000e+01 -4.150000e+01
      vertex -3.400000e+01 6.460000e+01 -4.150000e+01
      vertex -9.150000e+01 6.660000e+01 -4.150000e+01
    endloop
  endfacet
  facet normal 7.983511e-16 2.386517e-13 -1.000000e+00
    outer loop
      vertex 9.150000e+01 6.960000e+01 -4.150000e+01
      vertex -3.400000e+01 6.460000e+01 -4.150000e+01
      vertex -9.150000e+01 6.960000e+01 -4.150000e+01
    endloop
  endfacet
  facet normal 7.983511e-16 2.386517e-13 -1.000000e+00
    outer loop
      vertex 9.150000e+01 6.960000e+01 -4.150000e+01
      vertex 3.400000e+01 6.460000e+01 -4.150000e+01
      vertex -3.400000e+01 6.460000e+01 -4.150000e+01
    endloop
  endfacet
  facet normal 7.983511e-16 2.386517e-13 -1.000000e+00
    outer loop
      vertex 9.150000e+01 6.660000e+01 -4.150000e+01
      vertex 3.400000e+01 6.460000e+01 -4.150000e+01
      vertex 9.150000e+01 6.960000e+01 -4.150000e+01
    endloop
  endfacet
  facet normal 7.983511e-16 2.386517e-13 -1.000000e+00
    outer loop
      vertex 9.150000e+01 6.660000e+01 -4.150000e+01
      vertex 3.400000e+01 6.120000e+01 -4.150000e+01
      vertex 3.400000e+01 6.460000e+01 -4.150000e+01
    endloop
  endfacet
  facet normal 7.983511e-16 2.386517e-13 -1.000000e+00
    outer loop
      vertex 9.500000e+01 6.120000e+01 -4.150000e+01
      vertex 3.400000e+01 6.120000e+01 -4.150000e+01
      vertex 9.150000e+01 6.660000e+01 -4.150000e+01
    endloop
  endfacet
  facet normal -1.000000e+00 -4.416937e-14 -7.983511e-16
    outer loop
      vertex -9.150000e+01 6.660000e+01 -5.500000e+00
      vertex -9.150000e+01 6.960000e+01 -4.150000e+01
      vertex -9.150000e+01 6.660000e+01 -4.150000e+01
    endloop
  endfacet
  facet normal -1.000000e+00 -4.416937e-14 -7.983511e-16
    outer loop
      vertex -9.150000e+01 6.660000e+01 -5.500000e+00
      vertex -9.150000e+01 6.960000e+01 -3.000000e+00
      vertex -9.150000e+01 6.960000e+01 -4.150000e+01
    endloop
  endfacet
  facet normal -1.000000e+00 -4.416937e-14 -7.983511e-16
    outer loop
      vertex -9.150000e+01 6.660000e+01 -3.000000e+00
      vertex -9.150000e+01 6.960000e+01 -3.000000e+00
      vertex -9.150000e+01 6.660000e+01 -5.500000e+00
    endloop
  endfacet
  facet normal 1.000000e+00 4.416937e-14 7.983511e-16
    outer loop
      vertex 9.150000e+01 6.660000e+01 -5.500000e+00
      vertex 9.150000e+01 6.960000e+01 -3.000000e+00
      vertex 9.150000e+01 6.660000e+01 -3.000000e+00
    endloop
  endfacet
  facet normal 1.000000e+00 4.416937e-14 7.983511e-16
    outer loop
      vertex 9.150000e+01 6.660000e+01 -5.500000e+00
      vertex 9.150000e+01 6.960000e+01 -4.150000e+01
      vertex 9.150000e+01 6.960000e+01 -3.000000e+00
    endloop
  endfacet
  facet normal 1.000000e+00 4.416937e-14 7.983511e-16
    outer loop
      vertex 9.150000e+01 6.660000e+01 -4.150000e+01
      vertex 9.150000e+01 6.960000e+01 -4.150000e+01
      vertex 9.150000e+01 6.660000e+01 -5.500000e+00
    endloop
  endfacet
  facet normal -1.000000e+00 -4.416937e-14 -7.983511e-16
    outer loop
      vertex -9.500000e+01 6.120000e+01 -4.150000e+01
      vertex -9.500000e+01 6.120000e+01 -5.500000e+00
      vertex -9.500000e+01 6.660000e+01 -5.500000e+00
    endloop
  endfacet
  facet normal -1.000000e+00 -4.416937e-14 -7.983511e-16
    outer loop
      vertex -9.500000e+01 6.120000e+01 -4.150000e+01
      vertex -9.500000e+01 6.660000e+01 -5.500000e+00
      vertex -9.500000e+01 6.660000e+01 -4.150000e+01
    endloop
  endfacet
  facet normal 1.000000e+00 4.416937e-14 7.983511e-16
    outer loop
      vertex 9.500000e+01 6.120000e+01 -4.150000e+01
      vertex 9.500000e+01 6.660000e+01 -4.150000e+01
      vertex 9.500000e+01 6.660000e+01 -5.500000e+00
    endloop
  endfacet
  facet normal 1.000000e+00 4.416937e-14 7.983511e-16
    outer loop
      vertex 9.500000e+01 6.120000e+01 -4.150000e+01
      vertex 9.500000e+01 6.660000e+01 -5.500000e+00
      vertex 9.500000e+01 6.120000e+01 -5.500000e+00
    endloop
  endfacet
  facet normal -4.416937e-14 1.000000e+00 2.386517e-13
    outer loop
      vertex -9.150000e+01 6.660000e+01 -5.500000e+00
      vertex -9.150000e+01 6.660000e+01 -4.150000e+01
      vertex -9.500000e+01 6.660000e+01 -4.150000e+01
    endloop
  endfacet
  facet normal -4.416937e-14 1.000000e+00 2.386517e-13
    outer loop
      vertex -9.150000e+01 6.660000e+01 -5.500000e+00
      vertex -9.500000e+01 6.660000e+01 -4.150000e+01
      vertex -9.500000e+01 6.660000e+01 -5.500000e+00
    endloop
  endfacet
  facet normal 4.416937e-14 -1.000000e+00 -2.386517e-13
    outer loop
      vertex -3.400000e+01 6.460000e+01 -5.500000e+00
      vertex -3.400000e+01 6.460000e+01 -4.150000e+01
      vertex 3.400000e+01 6.460000e+01 -4.150000e+01
    endloop
  endfacet
  facet normal 4.416937e-14 -1.000000e+00 -2.386517e-13
    outer loop
      vertex -3.400000e+01 6.460000e+01 -5.500000e+00
      vertex 3.400000e+01 6.460000e+01 -4.150000e+01
      vertex 3.400000e+01 6.460000e+01 -5.500000e+00
    endloop
  endfacet
  facet normal -4.416937e-14 1.000000e+00 2.386517e-13
    outer loop
      vertex 9.500000e+01 6.660000e+01 -5.500000e+00
      vertex 9.500000e+01 6.660000e+01 -4.150000e+01
      vertex 9.150000e+01 6.660000e+01 -4.150000e+01
    endloop
  endfacet
  facet normal -4.416937e-14 1.000000e+00 2.386517e-13
    outer loop
      vertex 9.500000e+01 6.660000e+01 -5.500000e+00
      vertex 9.150000e+01 6.660000e+01 -4.150000e+01
      vertex 9.150000e+01 6.660000e+01 -5.500000e+00
    endloop
  endfacet
  facet normal -4.416937e-14 1.000000e+00 2.386517e-13
    outer loop
      vertex 9.150000e+01 6.960000e+01 -3.000000e+00
      vertex 9.150000e+01 6.960000e+01 -4.150000e+01
      vertex -9.150000e+01 6.960000e+01 -4.150000e+01
    endloop
  endfacet
  facet normal -4.416937e-14 1.000000e+00 2.386517e-13
    outer loop
      vertex 9.150000e+01 6.960000e+01 -3.000000e+00
      vertex -9.150000e+01 6.960000e+01 -4.150000e+01
      vertex -9.150000e+01 6.960000e+01 -3.000000e+00
    endloop
  endfacet
  facet normal -7.983511e-16 -2.386517e-13 1.000000e+00
    outer loop
      vertex -9.150000e+01 6.960000e+01 -3.000000e+00
      vertex -9.150000e+01 6.660000e+01 -3.000000e+00
      vertex 9.150000e+01 6.660000e+01 -3.000000e+00
    endloop
  endfacet
  facet normal -7.983511e-16 -2.386517e-13 1.000000e+00
    outer loop
      vertex -9.150000e+01 6.960000e+01 -3.000000e+00
      vertex 9.150000e+01 6.660000e+01 -3.000000e+00
      vertex 9.150000e+01 6.960000e+01 -3.000000e+00
    endloop
  endfacet
  facet normal 4.416937e-14 -1.000000e+00 -2.386517e-13
    outer loop
      vertex -9.150000e+01 6.660000e+01 -3.000000e+00
      vertex -9.150000e+01 6.660000e+01 -5.500000e+00
      vertex 9.150000e+01 6.660000e+01 -5.500000e+00
    endloop
  endfacet
  facet normal 4.416937e-14 -1.000000e+00 -2.386517e-13
    outer loop
      vertex -9.150000e+01 6.660000e+01 -3.000000e+00
      vertex 9.150000e+01 6.660000e+01 -5.500000e+00
      vertex 9.150000e+01 6.660000e+01 -3.000000e+00
    endloop
  endfacet
  facet normal -1.000000e+00 -4.416937e-14 -7.983511e-16
    outer loop
      vertex 3.400000e+01 6.120000e+01 -4.150000e+01
      vertex 3.400000e+01 6.120000e+01 -5.500000e+00
      vertex 3.400000e+01 6.460000e+01 -5.500000e+00
    endloop
  endfacet
  facet normal -1.000000e+00 -4.416937e-14 -7.983511e-16
    outer loop
      vertex 3.400000e+01 6.120000e+01 -4.150000e+01
      vertex 3.400000e+01 6.460000e+01 -5.500000e+00
      vertex 3.400000e+01 6.460000e+01 -4.150000e+01
    endloop
  endfacet
  facet normal 4.416937e-14 -1.000000e+00 -2.386517e-13
    outer loop
      vertex 9.500000e+01 6.120000e+01 -4.150000e+01
      vertex 9.500000e+01 6.120000e+01 -5.500000e+00
      vertex 3.400000e+01 6.120000e+01 -5.500000e+00
    endloop
  endfacet
  facet normal 4.416937e-14 -1.000000e+00 -2.386517e-13
    outer loop
      vertex 9.500000e+01 6.120000e+01 -4.150000e+01
      vertex 3.400000e+01 6.120000e+01 -5.500000e+00
      vertex 3.400000e+01 6.120000e+01 -4.150000e+01
    endloop
  endfacet
  facet normal 1.000000e+00 4.416937e-14 7.983511e-16
    outer loop
      vertex -3.400000e+01 6.120000e+01 -5.500000e+00
      vertex -3.400000e+01 6.120000e+01 -4.150000e+01
      vertex -3.400000e+01 6.460000e+01 -4.150000e+01
    endloop
  endfacet
  facet normal 1.000000e+00 4.416937e-14 7.983511e-16
    outer loop
      vertex -3.400000e+01 6.120000e+01 -5.500000e+00
      vertex -3.400000e+01 6.460000e+01 -4.150000e+01
      vertex -3.400000e+01 6.460000e+01 -5.500000e+00
    endloop
  endfacet
  facet normal 4.416937e-14 -1.000000e+00 -2.386517e-13
    outer loop
      vertex -3.400000e+01 6.120000e+01 -5.500000e+00
      vertex -9.500000e+01 6.120000e+01 -5.500000e+00
      vertex -9.500000e+01 6.120000e+01 -4.150000e+01
    endloop
  endfacet
  facet normal 4.416937e-14 -1.000000e+00 -2.386517e-13
    outer loop
      vertex -3.400000e+01 6.120000e+01 -5.500000e+00
      vertex -9.500000e+01 6.120000e+01 -4.150000e+01
      vertex -3.400000e+01 6.120000e+01 -4.150000e+01
    endloop
  endfacet
endsolid ST1A00669_01/Absorber_up:PartBody_1
solid component1:Coated_NEG
  facet normal -1.000000e+00 -3.374460e-32 -1.836970e-16
    outer loop
      vertex -9.484789e+01 6.070000e+01 -5.000000e+00
      vertex -9.484789e+01 6.070000e+01 -1.000000e+01
      vertex -9.484789e+01 -3.700000e+01 -1.000000e+01
    endloop
  endfacet
  facet normal -1.000000e+00 -3.374460e-32 -1.836970e-16
    outer loop
      vertex -9.484789e+01 -3.700000e+01 -1.000000e+01
      vertex -9.484789e+01 -3.700000e+01 -5.000000e+00
      vertex -9.484789e+01 6.070000e+01 -5.000000e+00
    endloop
  endfacet
  facet normal -1.000000e+00 -3.374460e-32 -1.836970e-16
    outer loop
      vertex -9.484789e+01 -3.700000e+01 -1.000000e+01
      vertex -9.484789e+01 -3.800000e+01 -6.000000e+00
      vertex -9.484789e+01 -3.700000e+01 -5.000000e+00
    endloop
  endfacet
  facet normal -1.000000e+00 -3.374460e-32 -1.836970e-16
    outer loop
      vertex -9.484789e+01 -3.800000e+01 -9.000000e+00
      vertex -9.484789e+01 -3.800000e+01 -6.000000e+00
      vertex -9.484789e+01 -3.700000e+01 -1.000000e+01
    endloop
  endfacet
  facet normal 1.000000e+00 3.374460e-32 1.836970e-16
    outer loop
      vertex -3.784789e+01 6.070000e+01 -5.000000e+00
      vertex -3.784789e+01 -3.700000e+01 -1.000000e+01
      vertex -3.784789e+01 6.070000e+01 -1.000000e+01
    endloop
  endfacet
  facet normal 1.000000e+00 3.374460e-32 1.836970e-16
    outer loop
      vertex -3.784789e+01 -3.700000e+01 -5.000000e+00
      vertex -3.784789e+01 -3.700000e+01 -1.000000e+01
      vertex -3.784789e+01 6.070000e+01 -5.000000e+00
    endloop
  endfacet
  facet normal 1.000000e+00 3.374460e-32 1.836970e-16
    outer loop
      vertex -3.784789e+01 -3.700000e+01 -5.000000e+00
      vertex -3.784789e+01 -3.800000e+01 -9.000000e+00
      vertex -3.784789e+01 -3.700000e+01 -1.000000e+01
    endloop
  endfacet
  facet normal 1.000000e+00 3.374460e-32 1.836970e-16
    outer loop
      vertex -3.784789e+01 -3.800000e+01 -6.000000e+00
      vertex -3.784789e+01 -3.800000e+01 -9.000000e+00
      vertex -3.784789e+01 -3.700000e+01 -5.000000e+00
    endloop
  endfacet
  facet normal 1.000000e+00 3.374460e-32 1.836970e-16
    outer loop
      vertex 9.515211e+01 6.070000e+01 -1.000000e+01
      vertex 9.515211e+01 6.070000e+01 -5.000000e+00
      vertex 9.515211e+01 -3.700000e+01 -5.000000e+00
    endloop
  endfacet
  facet normal 1.000000e+00 3.374460e-32 1.836970e-16
    outer loop
      vertex 9.515211e+01 -3.700000e+01 -5.000000e+00
      vertex 9.515211e+01 -3.700000e+01 -1.000000e+01
      vertex 9.515211e+01 6.070000e+01 -1.000000e+01
    endloop
  endfacet
  facet normal 1.000000e+00 3.374460e-32 1.836970e-16
    outer loop
      vertex 9.515211e+01 -3.700000e+01 -5.000000e+00
      vertex 9.515211e+01 -3.800000e+01 -9.000000e+00
      vertex 9.515211e+01 -3.700000e+01 -1.000000e+01
    endloop
  endfacet
  facet normal 1.000000e+00 3.374460e-32 1.836970e-16
    outer loop
      vertex 9.515211e+01 -3.800000e+01 -6.000000e+00
      vertex 9.515211e+01 -3.800000e+01 -9.000000e+00
      vertex 9.515211e+01 -3.700000e+01 -5.000000e+00
    endloop
  endfacet
  facet normal -1.000000e+00 -3.374460e-32 -1.836970e-16
    outer loop
      vertex 3.815211e+01 6.070000e+01 -1.000000e+01
      vertex 3.815211e+01 -3.700000e+01 -5.000000e+00
      vertex 3.815211e+01 6.070000e+01 -5.000000e+00
    endloop
  endfacet
  facet normal -1.000000e+00 -3.374460e-32 -1.836970e-16
    outer loop
      vertex 3.815211e+01 -3.700000e+01 -1.000000e+01
      vertex 3.815211e+01 -3.700000e+01 -5.000000e+00
      vertex 3.815211e+01 6.070000e+01 -1.000000e+01
    endloop
  endfacet
  facet normal -1.000000e+00 -3.374460e-32 -1.836970e-16
    outer loop
      vertex 3.815211e+01 -3.700000e+01 -1.000000e+01
      vertex 3.815211e+01 -3.800000e+01 -6.000000e+00
      vertex 3.815211e+01 -3.700000e+01 -5.000000e+00
    endloop
  endfacet
  facet normal -1.000000e+00 -3.374460e-32 -1.836970e-16
    outer loop
      vertex 3.815211e+01 -3.800000e+01 -9.000000e+00
      vertex 3.815211e+01 -3.800000e+01 -6.000000e+00
      vertex 3.815211e+01 -3.700000e+01 -1.000000e+01
    endloop
  endfacet
  facet normal -1.000000e+00 -4.416937e-14 -5.485904e-16
    outer loop
      vertex -9.150000e+01 6.660000e+01 5.500000e+00
      vertex -9.150000e+01 6.960000e+01 3.000000e+00
      vertex -9.150000e+01 6.660000e+01 3.000000e+00
    endloop
  endfacet
  facet normal -1.000000e+00 -4.416937e-14 -5.485904e-16
    outer loop
      vertex -9.150000e+01 6.660000e+01 5.500000e+00
      vertex -9.150000e+01 6.960000e+01 4.150000e+01
      vertex -9.150000e+01 6.960000e+01 3.000000e+00
    endloop
  endfacet
  facet normal -1.000000e+00 -4.416937e-14 -5.485904e-16
    outer loop
      vertex -9.150000e+01 6.660000e+01 4.150000e+01
      vertex -9.150000e+01 6.960000e+01 4.150000e+01
      vertex -9.150000e+01 6.660000e+01 5.500000e+00
    endloop
  endfacet
  facet normal 1.000000e+00 4.416937e-14 5.485904e-16
    outer loop
      vertex 9.150000e+01 6.660000e+01 5.500000e+00
      vertex 9.150000e+01 6.960000e+01 4.150000e+01
      vertex 9.150000e+01 6.660000e+01 4.150000e+01
    endloop
  endfacet
  facet normal 1.000000e+00 4.416937e-14 5.485904e-16
    outer loop
      vertex 9.150000e+01 6.660000e+01 5.500000e+00
      vertex 9.150000e+01 6.960000e+01 3.000000e+00
      vertex 9.150000e+01 6.960000e+01 4.150000e+01
    endloop
  endfacet
  facet normal 1.000000e+00 4.416937e-14 5.485904e-16
    outer loop
      vertex 9.150000e+01 6.660000e+01 3.000000e+00
      vertex 9.150000e+01 6.960000e+01 3.000000e+00
      vertex 9.150000e+01 6.660000e+01 5.500000e+00
    endloop
  endfacet
  facet normal -5.485904e-16 -2.386517e-13 1.000000e+00
    outer loop
      vertex -9.150000e+01 6.660000e+01 4.150000e+01
      vertex -9.500000e+01 6.660000e+01 4.150000e+01
      vertex -9.500000e+01 6.120000e+01 4.150000e+01
    endloop
  endfacet
  facet normal -5.485904e-16 -2.386517e-13 1.000000e+00
    outer loop
      vertex 9.150000e+01 6.660000e+01 4.150000e+01
      vertex 9.500000e+01 6.120000e+01 4.150000e+01
      vertex 9.500000e+01 6.660000e+01 4.150000e+01
    endloop
  endfacet
  facet normal -5.485904e-16 -2.386517e-13 1.000000e+00
    outer loop
      vertex 9.150000e+01 6.660000e+01 4.150000e+01
      vertex 3.400000e+01 6.120000e+01 4.150000e+01
      vertex 9.500000e+01 6.120000e+01 4.150000e+01
    endloop
  endfacet
  facet normal -5.485904e-16 -2.386517e-13 1.000000e+00
    outer loop
      vertex 3.400000e+01 6.460000e+01 4.150000e+01
      vertex 3.400000e+01 6.120000e+01 4.150000e+01
      vertex 9.150000e+01 6.660000e+01 4.150000e+01
    endloop
  endfacet
  facet normal -5.485904e-16 -2.386517e-13 1.000000e+00
    outer loop
      vertex 9.150000e+01 6.960000e+01 4.150000e+01
      vertex 3.400000e+01 6.460000e+01 4.150000e+01
      vertex 9.150000e+01 6.660000e+01 4.150000e+01
    endloop
  endfacet
  facet normal -5.485904e-16 -2.386517e-13 1.000000e+00
    outer loop
      vertex -9.150000e+01 6.960000e+01 4.150000e+01
      vertex 3.400000e+01 6.460000e+01 4.150000e+01
      vertex 9.150000e+01 6.960000e+01 4.150000e+01
    endloop
  endfacet
  facet normal -5.485904e-16 -2.386517e-13 1.000000e+00
    outer loop
      vertex -9.150000e+01 6.960000e+01 4.150000e+01
      vertex -3.400000e+01 6.460000e+01 4.150000e+01
      vertex 3.400000e+01 6.460000e+01 4.150000e+01
    endloop
  endfacet
  facet normal -5.485904e-16 -2.386517e-13 1.000000e+00
    outer loop
      vertex -9.150000e+01 6.660000e+01 4.150000e+01
      vertex -3.400000e+01 6.460000e+01 4.150000e+01
      vertex -9.150000e+01 6.960000e+01 4.150000e+01
    endloop
  endfacet
  facet normal -5.485904e-16 -2.386517e-13 1.000000e+00
    outer loop
      vertex -9.150000e+01 6.660000e+01 4.150000e+01
      vertex -3.400000e+01 6.120000e+01 4.150000e+01
      vertex -3.400000e+01 6.460000e+01 4.150000e+01
    endloop
  endfacet
  facet normal -5.485904e-16 -2.386517e-13 1.000000e+00
    outer loop
      vertex -9.500000e+01 6.120000e+01 4.150000e+01
      vertex -3.400000e+01 6.120000e+01 4.150000e+01
      vertex -9.150000e+01 6.660000e+01 4.150000e+01
    endloop
  endfacet
  facet normal 5.485904e-16 2.386517e-13 -1.000000e+00
    outer loop
      vertex 9.150000e+01 6.660000e+01 5.500000e+00
      vertex 9.500000e+01 6.120000e+01 5.500000e+00
      vertex 3.400000e+01 6.120000e+01 5.500000e+00
    endloop
  endfacet
  facet normal 5.485904e-16 2.386517e-13 -1.000000e+00
    outer loop
      vertex 9.500000e+01 6.660000e+01 5.500000e+00
      vertex 9.500000e+01 6.120000e+01 5.500000e+00
      vertex 9.150000e+01 6.660000e+01 5.500000e+00
    endloop
  endfacet
  facet normal 5.485904e-16 2.386517e-13 -1.000000e+00
    outer loop
      vertex 3.400000e+01 6.460000e+01 5.500000e+00
      vertex 9.150000e+01 6.660000e+01 5.500000e+00
      vertex 3.400000e+01 6.120000e+01 5.500000e+00
    endloop
  endfacet
  facet normal 5.485904e-16 2.386517e-13 -1.000000e+00
    outer loop
      vertex -3.400000e+01 6.460000e+01 5.500000e+00
      vertex 9.150000e+01 6.660000e+01 5.500000e+00
      vertex 3.400000e+01 6.460000e+01 5.500000e+00
    endloop
  endfacet
  facet normal 5.485904e-16 2.386517e-13 -1.000000e+00
    outer loop
      vertex -3.400000e+01 6.460000e+01 5.500000e+00
      vertex -9.150000e+01 6.660000e+01 5.500000e+00
      vertex 9.150000e+01 6.660000e+01 5.500000e+00
    endloop
  endfacet
  facet normal 5.485904e-16 2.386517e-13 -1.000000e+00
    outer loop
      vertex -3.400000e+01 6.120000e+01 5.500000e+00
      vertex -9.150000e+01 6.660000e+01 5.500000e+00
      vertex -3.400000e+01 6.460000e+01 5.500000e+00
    endloop
  endfacet
  facet normal 5.485904e-16 2.386517e-13 -1.000000e+00
    outer loop
      vertex -9.500000e+01 6.120000e+01 5.500000e+00
      vertex -9.150000e+01 6.660000e+01 5.500000e+00
      vertex -3.400000e+01 6.120000e+01 5.500000e+00
    endloop
  endfacet
  facet normal 5.485904e-16 2.386517e-13 -1.000000e+00
    outer loop
      vertex -9.500000e+01 6.660000e+01 5.500000e+00
      vertex -9.150000e+01 6.660000e+01 5.500000e+00
      vertex -9.500000e+01 6.120000e+01 5.500000e+00
    endloop
  endfacet
  facet normal 1.000000e+00 4.416937e-14 7.983511e-16
    outer loop
      vertex 9.150000e+01 6.660000e+01 -5.500000e+00
      vertex 9.150000e+01 6.960000e+01 -3.000000e+00
      vertex 9.150000e+01 6.660000e+01 -3.000000e+00
    endloop
  endfacet
  facet normal 1.000000e+00 4.416937e-14 7.983511e-16
    outer loop
      vertex 9.150000e+01 6.660000e+01 -5.500000e+00
      vertex 9.150000e+01 6.960000e+01 -4.150000e+01
      vertex 9.150000e+01 6.960000e+01 -3.000000e+00
    endloop
  endfacet
  facet normal 1.000000e+00 4.416937e-14 7.983511e-16
    outer loop
      vertex 9.150000e+01 6.660000e+01 -4.150000e+01
      vertex 9.150000e+01 6.960000e+01 -4.150000e+01
      vertex 9.150000e+01 6.660000e+01 -5.500000e+00
    endloop
  endfacet
  facet normal -1.000000e+00 -4.416937e-14 -7.983511e-16
    outer loop
      vertex -9.150000e+01 6.660000e+01 -5.500000e+00
      vertex -9.150000e+01 6.960000e+01 -4.150000e+01
      vertex -9.150000e+01 6.660000e+01 -4.150000e+01
    endloop
  endfacet
  facet normal -1.000000e+00 -4.416937e-14 -7.983511e-16
    outer loop
      vertex -9.150000e+01 6.660000e+01 -5.500000e+00
      vertex -9.150000e+01 6.960000e+01 -3.000000e+00
      vertex -9.150000e+01 6.960000e+01 -4.150000e+01
    endloop
  endfacet
  facet normal -1.000000e+00 -4.416937e-14 -7.983511e-16
    outer loop
      vertex -9.150000e+01 6.660000e+01 -3.000000e+00
      vertex -9.150000e+01 6.960000e+01 -3.000000e+00
      vertex -9.150000e+01 6.660000e+01 -5.500000e+00
    endloop
  endfacet
  facet normal 7.983511e-16 2.386517e-13 -1.000000e+00
    outer loop
      vertex 9.150000e+01 6.660000e+01 -4.150000e+01
      vertex 9.500000e+01 6.660000e+01 -4.150000e+01
      vertex 9.500000e+01 6.120000e+01 -4.150000e+01
    endloop
  endfacet
  facet normal 7.983511e-16 2.386517e-13 -1.000000e+00
    outer loop
      vertex -9.150000e+01 6.660000e+01 -4.150000e+01
      vertex -9.500000e+01 6.120000e+01 -4.150000e+01
      vertex -9.500000e+01 6.660000e+01 -4.150000e+01
    endloop
  endfacet
  facet normal 7.983511e-16 2.386517e-13 -1.000000e+00
    outer loop
      vertex -9.150000e+01 6.660000e+01 -4.150000e+01
      vertex -3.400000e+01 6.120000e+01 -4.150000e+01
      vertex -9.500000e+01 6.120000e+01 -4.150000e+01
    endloop
  endfacet
  facet normal 7.983511e-16 2.386517e-13 -1.000000e+00
    outer loop
      vertex -3.400000e+01 6.460000e+01 -4.150000e+01
      vertex -3.400000e+01 6.120000e+01 -4.150000e+01
      vertex -9.150000e+01 6.660000e+01 -4.150000e+01
    endloop
  endfacet
  facet normal 7.983511e-16 2.386517e-13 -1.000000e+00
    outer loop
      vertex -9.150000e+01 6.960000e+01 -4.150000e+01
      vertex -3.400000e+01 6.460000e+01 -4.150000e+01
      vertex -9.150000e+01 6.660000e+01 -4.150000e+01
    endloop
  endfacet
  facet normal 7.983511e-16 2.386517e-13 -1.000000e+00
    outer loop
      vertex 9.150000e+01 6.960000e+01 -4.150000e+01
      vertex -3.400000e+01 6.460000e+01 -4.150000e+01
      vertex -9.150000e+01 6.960000e+01 -4.150000e+01
    endloop
  endfacet
  facet normal 7.983511e-16 2.386517e-13 -1.000000e+00
    outer loop
      vertex 9.150000e+01 6.960000e+01 -4.150000e+01
      vertex 3.400000e+01 6.460000e+01 -4.150000e+01
      vertex -3.400000e+01 6.460000e+01 -4.150000e+01
    endloop
  endfacet
  facet normal 7.983511e-16 2.386517e-13 -1.000000e+00
    outer loop
      vertex 9.150000e+01 6.660000e+01 -4.150000e+01
      vertex 3.400000e+01 6.460000e+01 -4.150000e+01
      vertex 9.150000e+01 6.960000e+01 -4.150000e+01
    endloop
  endfacet
  facet normal 7.983511e-16 2.386517e-13 -1.000000e+00
    outer loop
      vertex 9.150000e+01 6.660000e+01 -4.150000e+01
      vertex 3.400000e+01 6.120000e+01 -4.150000e+01
      vertex 3.400000e+01 6.460000e+01 -4.150000e+01
    endloop
  endfacet
  facet normal 7.983511e-16 2.386517e-13 -1.000000e+00
    outer loop
      vertex 9.500000e+01 6.120000e+01 -4.150000e+01
      vertex 3.400000e+01 6.120000e+01 -4.150000e+01
      vertex 9.150000e+01 6.660000e+01 -4.150000e+01
    endloop
  endfacet
  facet normal -7.983511e-16 -2.386517e-13 1.000000e+00
    outer loop
      vertex -9.150000e+01 6.660000e+01 -5.500000e+00
      vertex -9.500000e+01 6.120000e+01 -5.500000e+00
      vertex -3.400000e+01 6.120000e+01 -5.500000e+00
    endloop
  endfacet
  facet normal -7.983511e-16 -2.386517e-13 1.000000e+00
    outer loop
      vertex -9.500000e+01 6.660000e+01 -5.500000e+00
      vertex -9.500000e+01 6.120000e+01 -5.500000e+00
      vertex -9.150000e+01 6.660000e+01 -5.500000e+00
    endloop
  endfacet
  facet normal -7.983511e-16 -2.386517e-13 1.000000e+00
    outer loop
      vertex -3.400000e+01 6.460000e+01 -5.500000e+00
      vertex -9.150000e+01 6.660000e+01 -5.500000e+00
      vertex -3.400000e+01 6.120000e+01 -5.500000e+00
    endloop
  endfacet
  facet normal -7.983511e-16 -2.386517e-13 1.000000e+00
    outer loop
      vertex 3.400000e+01 6.460000e+01 -5.500000e+00
      vertex -9.150000e+01 6.660000e+01 -5.500000e+00
      vertex -3.400000e+01 6.460000e+01 -5.500000e+00
    endloop
  endfacet
  facet normal -7.983511e-16 -2.386517e-13 1.000000e+00
    outer loop
      vertex 3.400000e+01 6.460000e+01 -5.500000e+00
      vertex 9.150000e+01 6.660000e+01 -5.500000e+00
      vertex -9.150000e+01 6.660000e+01 -5.500000e+00
    endloop
  endfacet
  facet normal -7.983511e-16 -2.386517e-13 1.000000e+00
    outer loop
      vertex 3.400000e+01 6.120000e+01 -5.500000e+00
      vertex 9.150000e+01 6.660000e+01 -5.500000e+00
      vertex 3.400000e+01 6.460000e+01 -5.500000e+00
    endloop
  endfacet
  facet normal -7.983511e-16 -2.386517e-13 1.000000e+00
    outer loop
      vertex 9.500000e+01 6.120000e+01 -5.500000e+00
      vertex 9.150000e+01 6.660000e+01 -5.500000e+00
      vertex 3.400000e+01 6.120000e+01 -5.500000e+00
    endloop
  endfacet
  facet normal -7.983511e-16 -2.386517e-13 1.000000e+00
    outer loop
      vertex 9.500000e+01 6.660000e+01 -5.500000e+00
      vertex 9.150000e+01 6.660000e+01 -5.500000e+00
      vertex 9.500000e+01 6.120000e+01 -5.500000e+00
    endloop
  endfacet
  facet normal 1.000000e+00 3.374460e-32 1.836970e-16
    outer loop
      vertex 9.515211e+01 6.070000e+01 5.000000e+00
      vertex 9.515211e+01 6.070000e+01 1.000000e+01
      vertex 9.515211e+01 -3.700000e+01 1.000000e+01
    endloop
  endfacet
  facet normal 1.000000e+00 3.374460e-32 1.836970e-16
    outer loop
      vertex 9.515211e+01 -3.700000e+01 1.000000e+01
      vertex 9.515211e+01 -3.700000e+01 5.000000e+00
      vertex 9.515211e+01 6.070000e+01 5.000000e+00
    endloop
  endfacet
  facet normal 1.000000e+00 3.374460e-32 1.836970e-16
    outer loop
      vertex 9.515211e+01 -3.700000e+01 1.000000e+01
      vertex 9.515211e+01 -3.800000e+01 6.000000e+00
      vertex 9.515211e+01 -3.700000e+01 5.000000e+00
    endloop
  endfacet
  facet normal 1.000000e+00 3.374460e-32 1.836970e-16
    outer loop
      vertex 9.515211e+01 -3.800000e+01 9.000000e+00
      vertex 9.515211e+01 -3.800000e+01 6.000000e+00
      vertex 9.515211e+01 -3.700000e+01 1.000000e+01
    endloop
  endfacet
  facet normal -1.000000e+00 -3.374460e-32 -1.836970e-16
    outer loop
      vertex 3.815211e+01 6.070000e+01 5.000000e+00
      vertex 3.815211e+01 -3.700000e+01 1.000000e+01
      vertex 3.815211e+01 6.070000e+01 1.000000e+01
    endloop
  endfacet
  facet normal -1.000000e+00 -3.374460e-32 -1.836970e-16
    outer loop
      vertex 3.815211e+01 -3.700000e+01 5.000000e+00
      vertex 3.815211e+01 -3.700000e+01 1.000000e+01
      vertex 3.815211e+01 6.070000e+01 5.000000e+00
    endloop
  endfacet
  facet normal -1.000000e+00 -3.374460e-32 -1.836970e-16
    outer loop
      vertex 3.815211e+01 -3.700000e+01 5.000000e+00
      vertex 3.815211e+01 -3.800000e+01 9.000000e+00
      vertex 3.815211e+01 -3.700000e+01 1.000000e+01
    endloop
  endfacet
  facet normal -1.000000e+00 -3.374460e-32 -1.836970e-16
    outer loop
      vertex 3.815211e+01 -3.800000e+01 6.000000e+00
      vertex 3.815211e+01 -3.800000e+01 9.000000e+00
      vertex 3.815211e+01 -3.700000e+01 5.000000e+00
    endloop
  endfacet
  facet normal 1.000000e+00 3.374460e-32 1.836970e-16
    outer loop
      vertex -3.784789e+01 6.070000e+01 5.000000e+00
      vertex -3.784789e+01 6.070000e+01 1.000000e+01
      vertex -3.784789e+01 -3.700000e+01 1.000000e+01
    endloop
  endfacet
  facet normal 1.000000e+00 3.374460e-32 1.836970e-16
    outer loop
      vertex -3.784789e+01 -3.700000e+01 1.000000e+01
      vertex -3.784789e+01 -3.700000e+01 5.000000e+00
      vertex -3.784789e+01 6.070000e+01 5.000000e+00
    endloop
  endfacet
  facet normal 1.000000e+00 3.374460e-32 1.836970e-16
    outer loop
      vertex -3.784789e+01 -3.700000e+01 1.000000e+01
      vertex -3.784789e+01 -3.800000e+01 6.000000e+00
      vertex -3.784789e+01 -3.700000e+01 5.000000e+00
    endloop
  endfacet
  facet normal 1.000000e+00 3.374460e-32 1.836970e-16
    outer loop
      vertex -3.784789e+01 -3.800000e+01 9.000000e+00
      vertex -3.784789e+01 -3.800000e+01 6.000000e+00
      vertex -3.784789e+01 -3.700000e+01 1.000000e+01
    endloop
  endfacet
  facet normal -1.000000e+00 -3.374460e-32 -1.836970e-16
    outer loop
      vertex -9.484789e+01 6.070000e+01 5.000000e+00
      vertex -9.484789e+01 -3.700000e+01 1.000000e+01
      vertex -9.484789e+01 6.070000e+01 1.000000e+01
    endloop
  endfacet
  facet normal -1.000000e+00 -3.374460e-32 -1.836970e-16
    outer loop
      vertex -9.484789e+01 -3.700000e+01 5.000000e+00
      vertex -9.484789e+01 -3.700000e+01 1.000000e+01
      vertex -9.484789e+01 6.070000e+01 5.000000e+00
    endloop
  endfacet
  facet normal -1.000000e+00 -3.374460e-32 -1.836970e-16
    outer loop
      vertex -9.484789e+01 -3.700000e+01 5.000000e+00
      vertex -9.484789e+01 -3.800000e+01 9.000000e+00
      vertex -9.484789e+01 -3.700000e+01 1.000000e+01
    endloop
  endfacet
  facet normal -1.000000e+00 -3.374460e-32 -1.836970e-16
    outer loop
      vertex -9.484789e+01 -3.800000e+01 6.000000e+00
      vertex -9.484789e+01 -3.800000e+01 9.000000e+00
      vertex -9.484789e+01 -3.700000e+01 5.000000e+00
    endloop
  endfacet
  facet normal -0.000000e+00 1.000000e+00 -1.836970e-16
    outer loop
      vertex -3.784789e+01 6.070000e+01 -5.000000e+00
      vertex -3.784789e+01 6.070000e+01 -1.000000e+01
      vertex -9.484789e+01 6.070000e+01 -1.000000e+01
    endloop
  endfacet
  facet normal -0.000000e+00 1.000000e+00 -1.836970e-16
    outer loop
      vertex -3.784789e+01 6.070000e+01 -5.000000e+00
      vertex -9.484789e+01 6.070000e+01 -1.000000e+01
      vertex -9.484789e+01 6.070000e+01 -5.000000e+00
    endloop
  endfacet
  facet normal -1.836970e-16 1.836970e-16 1.000000e+00
    outer loop
      vertex -3.784789e+01 -3.700000e+01 -5.000000e+00
      vertex -3.784789e+01 6.070000e+01 -5.000000e+00
      vertex -9.484789e+01 6.070000e+01 -5.000000e+00
    endloop
  endfacet
  facet normal -1.836970e-16 1.836970e-16 1.000000e+00
    outer loop
      vertex -3.784789e+01 -3.700000e+01 -5.000000e+00
      vertex -9.484789e+01 6.070000e+01 -5.000000e+00
      vertex -9.484789e+01 -3.700000e+01 -5.000000e+00
    endloop
  endfacet
  facet normal -1.298934e-16 -7.071068e-01 7.071068e-01
    outer loop
      vertex -3.784789e+01 -3.700000e+01 -5.000000e+00
      vertex -9.484789e+01 -3.700000e+01 -5.000000e+00
      vertex -9.484789e+01 -3.800000e+01 -6.000000e+00
    endloop
  endfacet
  facet normal -1.298934e-16 -7.071068e-01 7.071068e-01
    outer loop
      vertex -3.784789e+01 -3.700000e+01 -5.000000e+00
      vertex -9.484789e+01 -3.800000e+01 -6.000000e+00
      vertex -3.784789e+01 -3.800000e+01 -6.000000e+00
    endloop
  endfacet
  facet normal 1.836970e-16 -1.836970e-16 -1.000000e+00
    outer loop
      vertex -3.784789e+01 -3.700000e+01 -1.000000e+01
      vertex -9.484789e+01 -3.700000e+01 -1.000000e+01
      vertex -9.484789e+01 6.070000e+01 -1.000000e+01
    endloop
  endfacet
  facet normal 1.836970e-16 -1.836970e-16 -1.000000e+00
    outer loop
      vertex -3.784789e+01 -3.700000e+01 -1.000000e+01
      vertex -9.484789e+01 6.070000e+01 -1.000000e+01
      vertex -3.784789e+01 6.070000e+01 -1.000000e+01
    endloop
  endfacet
  facet normal -0.000000e+00 -1.000000e+00 1.836970e-16
    outer loop
      vertex -9.484789e+01 -3.800000e+01 -9.000000e+00
      vertex -3.784789e+01 -3.800000e+01 -9.000000e+00
      vertex -3.784789e+01 -3.800000e+01 -6.000000e+00
    endloop
  endfacet
  facet normal -0.000000e+00 -1.000000e+00 1.836970e-16
    outer loop
      vertex -9.484789e+01 -3.800000e+01 -9.000000e+00
      vertex -3.784789e+01 -3.800000e+01 -6.000000e+00
      vertex -9.484789e+01 -3.800000e+01 -6.000000e+00
    endloop
  endfacet
  facet normal 1.298934e-16 -7.071068e-01 -7.071068e-01
    outer loop
      vertex -3.784789e+01 -3.700000e+01 -1.000000e+01
      vertex -3.784789e+01 -3.800000e+01 -9.000000e+00
      vertex -9.484789e+01 -3.800000e+01 -9.000000e+00
    endloop
  endfacet
  facet normal 1.298934e-16 -7.071068e-01 -7.071068e-01
    outer loop
      vertex -3.784789e+01 -3.700000e+01 -1.000000e+01
      vertex -9.484789e+01 -3.800000e+01 -9.000000e+00
      vertex -9.484789e+01 -3.700000e+01 -1.000000e+01
    endloop
  endfacet
  facet normal -0.000000e+00 1.000000e+00 -1.836970e-16
    outer loop
      vertex 3.815211e+01 6.070000e+01 -1.000000e+01
      vertex 3.815211e+01 6.070000e+01 -5.000000e+00
      vertex 9.515211e+01 6.070000e+01 -5.000000e+00
    endloop
  endfacet
  facet normal -0.000000e+00 1.000000e+00 -1.836970e-16
    outer loop
      vertex 3.815211e+01 6.070000e+01 -1.000000e+01
      vertex 9.515211e+01 6.070000e+01 -5.000000e+00
      vertex 9.515211e+01 6.070000e+01 -1.000000e+01
    endloop
  endfacet
  facet normal 1.836970e-16 -1.836970e-16 -1.000000e+00
    outer loop
      vertex 3.815211e+01 -3.700000e+01 -1.000000e+01
      vertex 3.815211e+01 6.070000e+01 -1.000000e+01
      vertex 9.515211e+01 6.070000e+01 -1.000000e+01
    endloop
  endfacet
  facet normal 1.836970e-16 -1.836970e-16 -1.000000e+00
    outer loop
      vertex 3.815211e+01 -3.700000e+01 -1.000000e+01
      vertex 9.515211e+01 6.070000e+01 -1.000000e+01
      vertex 9.515211e+01 -3.700000e+01 -1.000000e+01
    endloop
  endfacet
  facet normal 1.298934e-16 -7.071068e-01 -7.071068e-01
    outer loop
      vertex 3.815211e+01 -3.700000e+01 -1.000000e+01
      vertex 9.515211e+01 -3.700000e+01 -1.000000e+01
      vertex 9.515211e+01 -3.800000e+01 -9.000000e+00
    endloop
  endfacet
  facet normal 1.298934e-16 -7.071068e-01 -7.071068e-01
    outer loop
      vertex 3.815211e+01 -3.700000e+01 -1.000000e+01
      vertex 9.515211e+01 -3.800000e+01 -9.000000e+00
      vertex 3.815211e+01 -3.800000e+01 -9.000000e+00
    endloop
  endfacet
  facet normal -1.836970e-16 1.836970e-16 1.000000e+00
    outer loop
      vertex 3.815211e+01 -3.700000e+01 -5.000000e+00
      vertex 9.515211e+01 -3.700000e+01 -5.000000e+00
      vertex 9.515211e+01 6.070000e+01 -5.000000e+00
    endloop
  endfacet
  facet normal -1.836970e-16 1.836970e-16 1.000000e+00
    outer loop
      vertex 3.815211e+01 -3.700000e+01 -5.000000e+00
      vertex 9.515211e+01 6.070000e+01 -5.000000e+00
      vertex 3.815211e+01 6.070000e+01 -5.000000e+00
    endloop
  endfacet
  facet normal -0.000000e+00 -1.000000e+00 1.836970e-16
    outer loop
      vertex 9.515211e+01 -3.800000e+01 -6.000000e+00
      vertex 3.815211e+01 -3.800000e+01 -6.000000e+00
      vertex 3.815211e+01 -3.800000e+01 -9.000000e+00
    endloop
  endfacet
  facet normal -0.000000e+00 -1.000000e+00 1.836970e-16
    outer loop
      vertex 9.515211e+01 -3.800000e+01 -6.000000e+00
      vertex 3.815211e+01 -3.800000e+01 -9.000000e+00
      vertex 9.515211e+01 -3.800000e+01 -9.000000e+00
    endloop
  endfacet
  facet normal -1.298934e-16 -7.071068e-01 7.071068e-01
    outer loop
      vertex 3.815211e+01 -3.700000e+01 -5.000000e+00
      vertex 3.815211e+01 -3.800000e+01 -6.000000e+00
      vertex 9.515211e+01 -3.800000e+01 -6.000000e+00
    endloop
  endfacet
  facet normal -1.298934e-16 -7.071068e-01 7.071068e-01
    outer loop
      vertex 3.815211e+01 -3.700000e+01 -5.000000e+00
      vertex 9.515211e+01 -3.800000e+01 -6.000000e+00
      vertex 9.515211e+01 -3.700000e+01 -5.000000e+00
    endloop
  endfacet
  facet normal 4.416937e-14 -1.000000e+00 -2.386517e-13
    outer loop
      vertex -9.500000e+01 6.120000e+01 5.500000e+00
      vertex -3.400000e+01 6.120000e+01 5.500000e+00
      vertex -3.400000e+01 6.120000e+01 4.150000e+01
    endloop
  endfacet
  facet normal 4.416937e-14 -1.000000e+00 -2.386517e-13
    outer loop
      vertex -9.500000e+01 6.120000e+01 5.500000e+00
      vertex -3.400000e+01 6.120000e+01 4.150000e+01
      vertex -9.500000e+01 6.120000e+01 4.150000e+01
    endloop
  endfacet
  facet normal 1.000000e+00 4.416937e-14 5.485904e-16
    outer loop
      vertex -3.400000e+01 6.120000e+01 5.500000e+00
      vertex -3.400000e+01 6.460000e+01 5.500000e+00
      vertex -3.400000e+01 6.460000e+01 4.150000e+01
    endloop
  endfacet
  facet normal 1.000000e+00 4.416937e-14 5.485904e-16
    outer loop
      vertex -3.400000e+01 6.120000e+01 5.500000e+00
      vertex -3.400000e+01 6.460000e+01 4.150000e+01
      vertex -3.400000e+01 6.120000e+01 4.150000e+01
    endloop
  endfacet
  facet normal 4.416937e-14 -1.000000e+00 -2.386517e-13
    outer loop
      vertex 3.400000e+01 6.120000e+01 5.500000e+00
      vertex 9.500000e+01 6.120000e+01 5.500000e+00
      vertex 9.500000e+01 6.120000e+01 4.150000e+01
    endloop
  endfacet
  facet normal 4.416937e-14 -1.000000e+00 -2.386517e-13
    outer loop
      vertex 3.400000e+01 6.120000e+01 5.500000e+00
      vertex 9.500000e+01 6.120000e+01 4.150000e+01
      vertex 3.400000e+01 6.120000e+01 4.150000e+01
    endloop
  endfacet
  facet normal -1.000000e+00 -4.416937e-14 -5.485904e-16
    outer loop
      vertex 3.400000e+01 6.120000e+01 5.500000e+00
      vertex 3.400000e+01 6.120000e+01 4.150000e+01
      vertex 3.400000e+01 6.460000e+01 4.150000e+01
    endloop
  endfacet
  facet normal -1.000000e+00 -4.416937e-14 -5.485904e-16
    outer loop
      vertex 3.400000e+01 6.120000e+01 5.500000e+00
      vertex 3.400000e+01 6.460000e+01 4.150000e+01
      vertex 3.400000e+01 6.460000e+01 5.500000e+00
    endloop
  endfacet
  facet normal 4.416937e-14 -1.000000e+00 -2.386517e-13
    outer loop
      vertex 3.400000e+01 6.460000e+01 5.500000e+00
      vertex 3.400000e+01 6.460000e+01 4.150000e+01
      vertex -3.400000e+01 6.460000e+01 4.150000e+01
    endloop
  endfacet
  facet normal 4.416937e-14 -1.000000e+00 -2.386517e-13
    outer loop
      vertex 3.400000e+01 6.460000e+01 5.500000e+00
      vertex -3.400000e+01 6.460000e+01 4.150000e+01
      vertex -3.400000e+01 6.460000e+01 5.500000e+00
    endloop
  endfacet
  facet normal 4.416937e-14 -1.000000e+00 -2.386517e-13
    outer loop
      vertex 9.150000e+01 6.660000e+01 3.000000e+00
      vertex 9.150000e+01 6.660000e+01 5.500000e+00
      vertex -9.150000e+01 6.660000e+01 5.500000e+00
    endloop
  endfacet
  facet normal 4.416937e-14 -1.000000e+00 -2.386517e-13
    outer loop
      vertex 9.150000e+01 6.660000e+01 3.000000e+00
      vertex -9.150000e+01 6.660000e+01 5.500000e+00
      vertex -9.150000e+01 6.660000e+01 3.000000e+00
    endloop
  endfacet
  facet normal 5.485904e-16 2.386517e-13 -1.000000e+00
    outer loop
      vertex 9.150000e+01 6.660000e+01 3.000000e+00
      vertex -9.150000e+01 6.660000e+01 3.000000e+00
      vertex -9.150000e+01 6.960000e+01 3.000000e+00
    endloop
  endfacet
  facet normal 5.485904e-16 2.386517e-13 -1.000000e+00
    outer loop
      vertex 9.150000e+01 6.660000e+01 3.000000e+00
      vertex -9.150000e+01 6.960000e+01 3.000000e+00
      vertex 9.150000e+01 6.960000e+01 3.000000e+00
    endloop
  endfacet
  facet normal -4.416937e-14 1.000000e+00 2.386517e-13
    outer loop
      vertex 9.150000e+01 6.960000e+01 3.000000e+00
      vertex -9.150000e+01 6.960000e+01 3.000000e+00
      vertex -9.150000e+01 6.960000e+01 4.150000e+01
    endloop
  endfacet
  facet normal -4.416937e-14 1.000000e+00 2.386517e-13
    outer loop
      vertex 9.150000e+01 6.960000e+01 3.000000e+00
      vertex -9.150000e+01 6.960000e+01 4.150000e+01
      vertex 9.150000e+01 6.960000e+01 4.150000e+01
    endloop
  endfacet
  facet normal -4.416937e-14 1.000000e+00 2.386517e-13
    outer loop
      vertex -9.500000e+01 6.660000e+01 5.500000e+00
      vertex -9.500000e+01 6.660000e+01 4.150000e+01
      vertex -9.150000e+01 6.660000e+01 4.150000e+01
    endloop
  endfacet
  facet normal -4.416937e-14 1.000000e+00 2.386517e-13
    outer loop
      vertex -9.500000e+01 6.660000e+01 5.500000e+00
      vertex -9.150000e+01 6.660000e+01 4.150000e+01
      vertex -9.150000e+01 6.660000e+01 5.500000e+00
    endloop
  endfacet
  facet normal -4.416937e-14 1.000000e+00 2.386517e-13
    outer loop
      vertex 9.150000e+01 6.660000e+01 5.500000e+00
      vertex 9.150000e+01 6.660000e+01 4.150000e+01
      vertex 9.500000e+01 6.660000e+01 4.150000e+01
    endloop
  endfacet
  facet normal -4.416937e-14 1.000000e+00 2.386517e-13
    outer loop
      vertex 9.150000e+01 6.660000e+01 5.500000e+00
      vertex 9.500000e+01 6.660000e+01 4.150000e+01
      vertex 9.500000e+01 6.660000e+01 5.500000e+00
    endloop
  endfacet
  facet normal -1.000000e+00 -4.416937e-14 -5.485904e-16
    outer loop
      vertex -9.500000e+01 6.120000e+01 4.150000e+01
      vertex -9.500000e+01 6.660000e+01 4.150000e+01
      vertex -9.500000e+01 6.660000e+01 5.500000e+00
    endloop
  endfacet
  facet normal -1.000000e+00 -4.416937e-14 -5.485904e-16
    outer loop
      vertex -9.500000e+01 6.120000e+01 4.150000e+01
      vertex -9.500000e+01 6.660000e+01 5.500000e+00
      vertex -9.500000e+01 6.120000e+01 5.500000e+00
    endloop
  endfacet
  facet normal 1.000000e+00 4.416937e-14 5.485904e-16
    outer loop
      vertex 9.500000e+01 6.120000e+01 4.150000e+01
      vertex 9.500000e+01 6.120000e+01 5.500000e+00
      vertex 9.500000e+01 6.660000e+01 5.500000e+00
    endloop
  endfacet
  facet normal 1.000000e+00 4.416937e-14 5.485904e-16
    outer loop
      vertex 9.500000e+01 6.120000e+01 4.150000e+01
      vertex 9.500000e+01 6.660000e+01 5.500000e+00
      vertex 9.500000e+01 6.660000e+01 4.150000e+01
    endloop
  endfacet
  facet normal 4.416937e-14 -1.000000e+00 -2.386517e-13
    outer loop
      vertex 9.500000e+01 6.120000e+01 -4.150000e+01
      vertex 9.500000e+01 6.120000e+01 -5.500000e+00
      vertex 3.400000e+01 6.120000e+01 -5.500000e+00
    endloop
  endfacet
  facet normal 4.416937e-14 -1.000000e+00 -2.386517e-13
    outer loop
      vertex 9.500000e+01 6.120000e+01 -4.150000e+01
      vertex 3.400000e+01 6.120000e+01 -5.500000e+00
      vertex 3.400000e+01 6.120000e+01 -4.150000e+01
    endloop
  endfacet
  facet normal -1.000000e+00 -4.416937e-14 -7.983511e-16
    outer loop
      vertex 3.400000e+01 6.120000e+01 -4.150000e+01
      vertex 3.400000e+01 6.120000e+01 -5.500000e+00
      vertex 3.400000e+01 6.460000e+01 -5.500000e+00
    endloop
  endfacet
  facet normal -1.000000e+00 -4.416937e-14 -7.983511e-16
    outer loop
      vertex 3.400000e+01 6.120000e+01 -4.150000e+01
      vertex 3.400000e+01 6.460000e+01 -5.500000e+00
      vertex 3.400000e+01 6.460000e+01 -4.150000e+01
    endloop
  endfacet
  facet normal 4.416937e-14 -1.000000e+00 -2.386517e-13
    outer loop
      vertex -3.400000e+01 6.120000e+01 -5.500000e+00
      vertex -9.500000e+01 6.120000e+01 -5.500000e+00
      vertex -9.500000e+01 6.120000e+01 -4.150000e+01
    endloop
  endfacet
  facet normal 4.416937e-14 -1.000000e+00 -2.386517e-13
    outer loop
      vertex -3.400000e+01 6.120000e+01 -5.500000e+00
      vertex -9.500000e+01 6.120000e+01 -4.150000e+01
      vertex -3.400000e+01 6.120000e+01 -4.150000e+01
    endloop
  endfacet
  facet normal 1.000000e+00 4.416937e-14 7.983511e-16
    outer loop
      vertex -3.400000e+01 6.120000e+01 -5.500000e+00
      vertex -3.400000e+01 6.120000e+01 -4.150000e+01
      vertex -3.400000e+01 6.460000e+01 -4.150000e+01
    endloop
  endfacet
  facet normal 1.000000e+00 4.416937e-14 7.983511e-16
    outer loop
      vertex -3.400000e+01 6.120000e+01 -5.500000e+00
      vertex -3.400000e+01 6.460000e+01 -4.150000e+01
      vertex -3.400000e+01 6.460000e+01 -5.500000e+00
    endloop
  endfacet
  facet normal 4.416937e-14 -1.000000e+00 -2.386517e-13
    outer loop
      vertex -3.400000e+01 6.460000e+01 -5.500000e+00
      vertex -3.400000e+01 6.460000e+01 -4.150000e+01
      vertex 3.400000e+01 6.460000e+01 -4.150000e+01
    endloop
  endfacet
  facet normal 4.416937e-14 -1.000000e+00 -2.386517e-13
    outer loop
      vertex -3.400000e+01 6.460000e+01 -5.500000e+00
      vertex 3.400000e+01 6.460000e+01 -4.150000e+01
      vertex 3.400000e+01 6.460000e+01 -5.500000e+00
    endloop
  endfacet
  facet normal 4.416937e-14 -1.000000e+00 -2.386517e-13
    outer loop
      vertex -9.150000e+01 6.660000e+01 -3.000000e+00
      vertex -9.150000e+01 6.660000e+01 -5.500000e+00
      vertex 9.150000e+01 6.660000e+01 -5.500000e+00
    endloop
  endfacet
  facet normal 4.416937e-14 -1.000000e+00 -2.386517e-13
    outer loop
      vertex -9.150000e+01 6.660000e+01 -3.000000e+00
      vertex 9.150000e+01 6.660000e+01 -5.500000e+00
      vertex 9.150000e+01 6.660000e+01 -3.000000e+00
    endloop
  endfacet
  facet normal -7.983511e-16 -2.386517e-13 1.000000e+00
    outer loop
      vertex -9.150000e+01 6.960000e+01 -3.000000e+00
      vertex -9.150000e+01 6.660000e+01 -3.000000e+00
      vertex 9.150000e+01 6.660000e+01 -3.000000e+00
    endloop
  endfacet
  facet normal -7.983511e-16 -2.386517e-13 1.000000e+00
    outer loop
      vertex -9.150000e+01 6.960000e+01 -3.000000e+00
      vertex 9.150000e+01 6.660000e+01 -3.000000e+00
      vertex 9.150000e+01 6.960000e+01 -3.000000e+00
    endloop
  endfacet
  facet normal -4.416937e-14 1.000000e+00 2.386517e-13
    outer loop
      vertex 9.150000e+01 6.960000e+01 -3.000000e+00
      vertex 9.150000e+01 6.960000e+01 -4.150000e+01
      vertex -9.150000e+01 6.960000e+01 -4.150000e+01
    endloop
  endfacet
  facet normal -4.416937e-14 1.000000e+00 2.386517e-13
    outer loop
      vertex 9.150000e+01 6.960000e+01 -3.000000e+00
      vertex -9.150000e+01 6.960000e+01 -4.150000e+01
      vertex -9.150000e+01 6.960000e+01 -3.000000e+00
    endloop
  endfacet
  facet normal -4.416937e-14 1.000000e+00 2.386517e-13
    outer loop
      vertex 9.500000e+01 6.660000e+01 -5.500000e+00
      vertex 9.500000e+01 6.660000e+01 -4.150000e+01
      vertex 9.150000e+01 6.660000e+01 -4.150000e+01
    endloop
  endfacet
  facet normal -4.416937e-14 1.000000e+00 2.386517e-13
    outer loop
      vertex 9.500000e+01 6.660000e+01 -5.500000e+00
      vertex 9.150000e+01 6.660000e+01 -4.150000e+01
      vertex 9.150000e+01 6.660000e+01 -5.500000e+00
    endloop
  endfacet
  facet normal -4.416937e-14 1.000000e+00 2.386517e-13
    outer loop
      vertex -9.150000e+01 6.660000e+01 -5.500000e+00
      vertex -9.150000e+01 6.660000e+01 -4.150000e+01
      vertex -9.500000e+01 6.660000e+01 -4.150000e+01
    endloop
  endfacet
  facet normal -4.416937e-14 1.000000e+00 2.386517e-13
    outer loop
      vertex -9.150000e+01 6.660000e+01 -5.500000e+00
      vertex -9.500000e+01 6.660000e+01 -4.150000e+01
      vertex -9.500000e+01 6.660000e+01 -5.500000e+00
    endloop
  endfacet
  facet normal 1.000000e+00 4.416937e-14 7.983511e-16
    outer loop
      vertex 9.500000e+01 6.120000e+01 -4.150000e+01
      vertex 9.500000e+01 6.660000e+01 -4.150000e+01
      vertex 9.500000e+01 6.660000e+01 -5.500000e+00
    endloop
  endfacet
  facet normal 1.000000e+00 4.416937e-14 7.983511e-16
    outer loop
      vertex 9.500000e+01 6.120000e+01 -4.150000e+01
      vertex 9.500000e+01 6.660000e+01 -5.500000e+00
      vertex 9.500000e+01 6.120000e+01 -5.500000e+00
    endloop
  endfacet
  facet normal -1.000000e+00 -4.416937e-14 -7.983511e-16
    outer loop
      vertex -9.500000e+01 6.120000e+01 -4.150000e+01
      vertex -9.500000e+01 6.120000e+01 -5.500000e+00
      vertex -9.500000e+01 6.660000e+01 -5.500000e+00
    endloop
  endfacet
  facet normal -1.000000e+00 -4.416937e-14 -7.983511e-16
    outer loop
      vertex -9.500000e+01 6.120000e+01 -4.150000e+01
      vertex -9.500000e+01 6.660000e+01 -5.500000e+00
      vertex -9.500000e+01 6.660000e+01 -4.150000e+01
    endloop
  endfacet
  facet normal -0.000000e+00 1.000000e+00 -1.836970e-16
    outer loop
      vertex 3.815211e+01 6.070000e+01 5.000000e+00
      vertex 3.815211e+01 6.070000e+01 1.000000e+01
      vertex 9.515211e+01 6.070000e+01 1.000000e+01
    endloop
  endfacet
  facet normal -0.000000e+00 1.000000e+00 -1.836970e-16
    outer loop
      vertex 3.815211e+01 6.070000e+01 5.000000e+00
      vertex 9.515211e+01 6.070000e+01 1.000000e+01
      vertex 9.515211e+01 6.070000e+01 5.000000e+00
    endloop
  endfacet
  facet normal 1.836970e-16 -1.836970e-16 -1.000000e+00
    outer loop
      vertex 3.815211e+01 -3.700000e+01 5.000000e+00
      vertex 3.815211e+01 6.070000e+01 5.000000e+00
      vertex 9.515211e+01 6.070000e+01 5.000000e+00
    endloop
  endfacet
  facet normal 1.836970e-16 -1.836970e-16 -1.000000e+00
    outer loop
      vertex 3.815211e+01 -3.700000e+01 5.000000e+00
      vertex 9.515211e+01 6.070000e+01 5.000000e+00
      vertex 9.515211e+01 -3.700000e+01 5.000000e+00
    endloop
  endfacet
  facet normal 1.298934e-16 -7.071068e-01 -7.071068e-01
    outer loop
      vertex 3.815211e+01 -3.700000e+01 5.000000e+00
      vertex 9.515211e+01 -3.700000e+01 5.000000e+00
      vertex 9.515211e+01 -3.800000e+01 6.000000e+00
    endloop
  endfacet
  facet normal 1.298934e-16 -7.071068e-01 -7.071068e-01
    outer loop
      vertex 3.815211e+01 -3.700000e+01 5.000000e+00
      vertex 9.515211e+01 -3.800000e+01 6.000000e+00
      vertex 3.815211e+01 -3.800000e+01 6.000000e+00
    endloop
  endfacet
  facet normal -1.836970e-16 1.836970e-16 1.000000e+00
    outer loop
      vertex 3.815211e+01 -3.700000e+01 1.000000e+01
      vertex 9.515211e+01 -3.700000e+01 1.000000e+01
      vertex 9.515211e+01 6.070000e+01 1.000000e+01
    endloop
  endfacet
  facet normal -1.836970e-16 1.836970e-16 1.000000e+00
    outer loop
      vertex 3.815211e+01 -3.700000e+01 1.000000e+01
      vertex 9.515211e+01 6.070000e+01 1.000000e+01
      vertex 3.815211e+01 6.070000e+01 1.000000e+01
    endloop
  endfacet
  facet normal -0.000000e+00 -1.000000e+00 1.836970e-16
    outer loop
      vertex 9.515211e+01 -3.800000e+01 9.000000e+00
      vertex 3.815211e+01 -3.800000e+01 9.000000e+00
      vertex 3.815211e+01 -3.800000e+01 6.000000e+00
    endloop
  endfacet
  facet normal -0.000000e+00 -1.000000e+00 1.836970e-16
    outer loop
      vertex 9.515211e+01 -3.800000e+01 9.000000e+00
      vertex 3.815211e+01 -3.800000e+01 6.000000e+00
      vertex 9.515211e+01 -3.800000e+01 6.000000e+00
    endloop
  endfacet
  facet normal -1.298934e-16 -7.071068e-01 7.071068e-01
    outer loop
      vertex 3.815211e+01 -3.700000e+01 1.000000e+01
      vertex 3.815211e+01 -3.800000e+01 9.000000e+00
      vertex 9.515211e+01 -3.800000e+01 9.000000e+00
    endloop
  endfacet
  facet normal -1.298934e-16 -7.071068e-01 7.071068e-01
    outer loop
      vertex 3.815211e+01 -3.700000e+01 1.000000e+01
      vertex 9.515211e+01 -3.800000e+01 9.000000e+00
      vertex 9.515211e+01 -3.700000e+01 1.000000e+01
    endloop
  endfacet
  facet normal -0.000000e+00 1.000000e+00 -1.836970e-16
    outer loop
      vertex -9.484789e+01 6.070000e+01 5.000000e+00
      vertex -9.484789e+01 6.070000e+01 1.000000e+01
      vertex -3.784789e+01 6.070000e+01 1.000000e+01
    endloop
  endfacet
  facet normal -0.000000e+00 1.000000e+00 -1.836970e-16
    outer loop
      vertex -9.484789e+01 6.070000e+01 5.000000e+00
      vertex -3.784789e+01 6.070000e+01 1.000000e+01
      vertex -3.784789e+01 6.070000e+01 5.000000e+00
    endloop
  endfacet
  facet normal 1.836970e-16 -1.836970e-16 -1.000000e+00
    outer loop
      vertex -9.484789e+01 -3.700000e+01 5.000000e+00
      vertex -9.484789e+01 6.070000e+01 5.000000e+00
      vertex -3.784789e+01 6.070000e+01 5.000000e+00
    endloop
  endfacet
  facet normal 1.836970e-16 -1.836970e-16 -1.000000e+00
    outer loop
      vertex -9.484789e+01 -3.700000e+01 5.000000e+00
      vertex -3.784789e+01 6.070000e+01 5.000000e+00
      vertex -3.784789e+01 -3.700000e+01 5.000000e+00
    endloop
  endfacet
  facet normal 1.298934e-16 -7.071068e-01 -7.071068e-01
    outer loop
      vertex -9.484789e+01 -3.700000e+01 5.000000e+00
      vertex -3.784789e+01 -3.700000e+01 5.000000e+00
      vertex -3.784789e+01 -3.800000e+01 6.000000e+00
    endloop
  endfacet
  facet normal 1.298934e-16 -7.071068e-01 -7.071068e-01
    outer loop
      vertex -9.484789e+01 -3.700000e+01 5.000000e+00
      vertex -3.784789e+01 -3.800000e+01 6.000000e+00
      vertex -9.484789e+01 -3.800000e+01 6.000000e+00
    endloop
  endfacet
  facet normal -1.836970e-16 1.836970e-16 1.000000e+00
    outer loop
      vertex -9.484789e+01 -3.700000e+01 1.000000e+01
      vertex -3.784789e+01 -3.700000e+01 1.000000e+01
      vertex -3.784789e+01 6.070000e+01 1.000000e+01
    endloop
  endfacet
  facet normal -1.836970e-16 1.836970e-16 1.000000e+00
    outer loop
      vertex -9.484789e+01 -3.700000e+01 1.000000e+01
      vertex -3.784789e+01 6.070000e+01 1.000000e+01
      vertex -9.484789e+01 6.070000e+01 1.000000e+01
    endloop
  endfacet
  facet normal -0.000000e+00 -1.000000e+00 1.836970e-16
    outer loop
      vertex -3.784789e+01 -3.800000e+01 9.000000e+00
      vertex -9.484789e+01 -3.800000e+01 9.000000e+00
      vertex -9.484789e+01 -3.800000e+01 6.000000e+00
    endloop
  endfacet
  facet normal -0.000000e+00 -1.000000e+00 1.836970e-16
    outer loop
      vertex -3.784789e+01 -3.800000e+01 9.000000e+00
      vertex -9.484789e+01 -3.800000e+01 6.000000e+00
      vertex -3.784789e+01 -3.800000e+01 6.000000e+00
    endloop
  endfacet
  facet normal -1.298934e-16 -7.071068e-01 7.071068e-01
    outer loop
      vertex -9.484789e+01 -3.700000e+01 1.000000e+01
      vertex -9.484789e+01 -3.800000e+01 9.000000e+00
      vertex -3.784789e+01 -3.800000e+01 9.000000e+00
    endloop
  endfacet
  facet normal -1.298934e-16 -7.071068e-01 7.071068e-01
    outer loop
      vertex -9.484789e+01 -3.700000e+01 1.000000e+01
      vertex -3.784789e+01 -3.800000e+01 9.000000e+00
      vertex -3.784789e+01 -3.700000e+01 1.000000e+01
    endloop
  endfacet
endsolid component1:Coated_NEG
